<svg id="visual" viewBox="0 0 960 540" width="960" height="540" xmlns="http://www.w3.org/2000/svg" xmlns:xlink="http://www.w3.org/1999/xlink" version="1.1"><path d="M0 82L22.8 83.8C45.7 85.7 91.3 89.3 137 81.2C182.7 73 228.3 53 274 52C319.7 51 365.3 69 411.2 69C457 69 503 51 548.8 43.8C594.7 36.7 640.3 40.3 686 47.7C731.7 55 777.3 66 823 76C868.7 86 914.3 95 937.2 99.5L960 104L960 0L937.2 0C914.3 0 868.7 0 823 0C777.3 0 731.7 0 686 0C640.3 0 594.7 0 548.8 0C503 0 457 0 411.2 0C365.3 0 319.7 0 274 0C228.3 0 182.7 0 137 0C91.3 0 45.7 0 22.8 0L0 0Z" fill="#f7caca"></path><path d="M0 233L22.8 235.7C45.7 238.3 91.3 243.7 137 244.7C182.7 245.7 228.3 242.3 274 227.2C319.7 212 365.3 185 411.2 169.7C457 154.3 503 150.7 548.8 165C594.7 179.3 640.3 211.7 686 225.2C731.7 238.7 777.3 233.3 823 240.5C868.7 247.7 914.3 267.3 937.2 277.2L960 287L960 102L937.2 97.5C914.3 93 868.7 84 823 74C777.3 64 731.7 53 686 45.7C640.3 38.3 594.7 34.7 548.8 41.8C503 49 457 67 411.2 67C365.3 67 319.7 49 274 50C228.3 51 182.7 71 137 79.2C91.3 87.3 45.7 83.7 22.8 81.8L0 80Z" fill="#fbdddd"></path><path d="M0 260L22.8 268.2C45.7 276.3 91.3 292.7 137 291.8C182.7 291 228.3 273 274 253.2C319.7 233.3 365.3 211.7 411.2 195.5C457 179.3 503 168.7 548.8 180.3C594.7 192 640.3 226 686 245.7C731.7 265.3 777.3 270.7 823 279.7C868.7 288.7 914.3 301.3 937.2 307.7L960 314L960 285L937.2 275.2C914.3 265.3 868.7 245.7 823 238.5C777.3 231.3 731.7 236.7 686 223.2C640.3 209.7 594.7 177.3 548.8 163C503 148.7 457 152.3 411.2 167.7C365.3 183 319.7 210 274 225.2C228.3 240.3 182.7 243.7 137 242.7C91.3 241.7 45.7 236.3 22.8 233.7L0 231Z" fill="#fdf0f0"></path><path d="M0 330L22.8 338.2C45.7 346.3 91.3 362.7 137 355.5C182.7 348.3 228.3 317.7 274 290.7C319.7 263.7 365.3 240.3 411.2 229.5C457 218.7 503 220.3 548.8 235.7C594.7 251 640.3 280 686 295.3C731.7 310.7 777.3 312.3 823 320.3C868.7 328.3 914.3 342.7 937.2 349.8L960 357L960 312L937.2 305.7C914.3 299.3 868.7 286.7 823 277.7C777.3 268.7 731.7 263.3 686 243.7C640.3 224 594.7 190 548.8 178.3C503 166.7 457 177.3 411.2 193.5C365.3 209.7 319.7 231.3 274 251.2C228.3 271 182.7 289 137 289.8C91.3 290.7 45.7 274.3 22.8 266.2L0 258Z" fill="#ffffff"></path><path d="M0 390L22.8 392.7C45.7 395.3 91.3 400.7 137 390.7C182.7 380.7 228.3 355.3 274 331C319.7 306.7 365.3 283.3 411.2 273.5C457 263.7 503 267.3 548.8 277.3C594.7 287.3 640.3 303.7 686 313.5C731.7 323.3 777.3 326.7 823 334.7C868.7 342.7 914.3 355.3 937.2 361.7L960 368L960 355L937.2 347.8C914.3 340.7 868.7 326.3 823 318.3C777.3 310.3 731.7 308.7 686 293.3C640.3 278 594.7 249 548.8 233.7C503 218.3 457 216.7 411.2 227.5C365.3 238.3 319.7 261.7 274 288.7C228.3 315.7 182.7 346.3 137 353.5C91.3 360.7 45.7 344.3 22.8 336.2L0 328Z" fill="#ffffff"></path><path d="M0 411L22.8 412.8C45.7 414.7 91.3 418.3 137 412.2C182.7 406 228.3 390 274 370.2C319.7 350.3 365.3 326.7 411.2 322.2C457 317.7 503 332.3 548.8 345.8C594.7 359.3 640.3 371.7 686 384.2C731.7 396.7 777.3 409.3 823 412.2C868.7 415 914.3 408 937.2 404.5L960 401L960 366L937.2 359.7C914.3 353.3 868.7 340.7 823 332.7C777.3 324.7 731.7 321.3 686 311.5C640.3 301.7 594.7 285.3 548.8 275.3C503 265.3 457 261.7 411.2 271.5C365.3 281.3 319.7 304.7 274 329C228.3 353.3 182.7 378.7 137 388.7C91.3 398.7 45.7 393.3 22.8 390.7L0 388Z" fill="#fdf0f0"></path><path d="M0 482L22.8 477.5C45.7 473 91.3 464 137 455C182.7 446 228.3 437 274 415.3C319.7 393.7 365.3 359.3 411.2 357.5C457 355.7 503 386.3 548.8 400.7C594.7 415 640.3 413 686 416.5C731.7 420 777.3 429 823 435.3C868.7 441.7 914.3 445.3 937.2 447.2L960 449L960 399L937.2 402.5C914.3 406 868.7 413 823 410.2C777.3 407.3 731.7 394.7 686 382.2C640.3 369.7 594.7 357.3 548.8 343.8C503 330.3 457 315.7 411.2 320.2C365.3 324.7 319.7 348.3 274 368.2C228.3 388 182.7 404 137 410.2C91.3 416.3 45.7 412.7 22.8 410.8L0 409Z" fill="#fbdddd"></path><path d="M0 541L22.8 541C45.7 541 91.3 541 137 541C182.7 541 228.3 541 274 541C319.7 541 365.3 541 411.2 541C457 541 503 541 548.8 541C594.7 541 640.3 541 686 541C731.7 541 777.3 541 823 541C868.7 541 914.3 541 937.2 541L960 541L960 447L937.2 445.2C914.3 443.3 868.7 439.7 823 433.3C777.3 427 731.7 418 686 414.5C640.3 411 594.7 413 548.8 398.7C503 384.3 457 353.7 411.2 355.5C365.3 357.3 319.7 391.7 274 413.3C228.3 435 182.7 444 137 453C91.3 462 45.7 471 22.8 475.5L0 480Z" fill="#f7caca"></path></svg>