<svg xmlns="http://www.w3.org/2000/svg" viewBox="0 0 656.27 795.76"><defs><style>.cls-1{fill:#414042;}</style></defs><title>Zasób 1</title><g id="Warstwa_2" data-name="Warstwa 2"><g id="Logo"><path class="cls-1" d="M268.12,795.76a129.66,129.66,0,0,1-39.23-6.12A328.24,328.24,0,0,1,182.83,182.5a5.74,5.74,0,0,1,5.09,10.29C79.09,246.62,11.48,355.45,11.48,476.79c0,138.71,88.76,260,220.88,301.91A116.88,116.88,0,0,0,323,770.53a112.62,112.62,0,0,0,55.79-67.66,111.06,111.06,0,0,0,.22-63c-15.67-55.3-61.28-47.78-114.84-33.27-9.64,2.61-18.74,5.08-26.23,6.27-18.22,2.9-32,.15-41-8.18-8.44-7.81-12.22-20.32-10.93-36.16,1.14-14.08-3.5-25.25-13.78-33.2-4.47-3.45-5.9-9.93-3.56-16.14,1-2.65,4.14-8.69,12.92-13-7.55-3-12.34-6.58-14.83-11-1.71-3.06-3.16-8.08-.32-14.65l1-2.35c7.39-16.82,8.9-25.22-1.7-30.52l-1-.51c-10-5-18-9-20.15-17.43-2-7.6,1.4-16.76,11.61-31.61,4.09-6,8-11.38,11.86-16.63,14-19.29,24.19-33.22,23.56-48.6l-.09-2.2C190.4,305.33,187,228,270.9,154.49a5.74,5.74,0,1,1,7.57,8.63C198.66,233,201.93,306.18,203,330.22l.1,2.24c.79,19.37-10.92,35.46-25.75,55.83-3.77,5.18-7.68,10.54-11.68,16.37-7.58,11-10.93,18.5-10,22.24.88,3.39,6.74,6.32,14.17,10l1,.52c22.16,11.08,12.35,33.4,7.08,45.4l-1,2.29c-1.19,2.73-.5,4-.21,4.48,1.6,2.85,8.38,8.21,35.91,12.14a5.74,5.74,0,0,1-1.17,11.41c-19.39-1.22-29.14,4.07-31.8,9.42-1,2-.66,3.47-.43,3.74,13.33,10.29,19.62,25.24,18.17,43.18-.69,8.51,0,20.07,7.28,26.8,6.29,5.82,16.86,7.59,31.41,5.28,6.89-1.1,15.7-3.49,25-6,43.35-11.74,108.86-29.5,128.89,41.22a122.34,122.34,0,0,1-.26,69.36,124,124,0,0,1-61.42,74.52A128.52,128.52,0,0,1,268.12,795.76Z"/><path class="cls-1" d="M290,11.64A5.74,5.74,0,0,1,284.3,5.9a6.51,6.51,0,0,1,.36-2.06,5.74,5.74,0,0,1,11,3.33A5.73,5.73,0,0,1,290,11.64Z"/><path class="cls-1" d="M455.81,778.64a5.73,5.73,0,0,1-5-8.59c52.93-92.31,59-214.55,14.38-290.67-9.87-16.83-22.47-34.2-40.88-56.34h0a1.25,1.25,0,0,1-.15-.19c-9.13-11-18.56-21.8-28.54-33.26-61.74-70.88-131.72-151.23-129.16-277.14,0-.2,0-.41,0-.65h0c.14-6.65.5-13.67,1.09-20.86a5.78,5.78,0,0,1,5.73-5.37,5.69,5.69,0,0,1,5.73,5.69v.1c0,.15,0,.31,0,.46-.58,7-.93,13.76-1.07,20.2a4.33,4.33,0,0,1,0,.62c-2.42,121.59,66,200.12,126.35,269.41,10.05,11.54,19.54,22.44,28.78,33.56h0l.15.19c18.77,22.59,31.69,40.41,41.87,57.78,44.11,75.27,41,193.33-6.09,286.88A316.58,316.58,0,0,0,644.79,476.78c0-169.18-132.26-308.1-301.11-316.27a5.74,5.74,0,1,1,.55-11.46c175,8.47,312,152.42,312,327.73A328,328,0,0,1,458.08,778.17,5.63,5.63,0,0,1,455.81,778.64ZM277.93,112.88h0Zm0-.38v0Z"/><path class="cls-1" d="M453.65,456.16a6.07,6.07,0,0,1-.85-.06,5.75,5.75,0,0,1-3.77-2.27,96.25,96.25,0,0,1,20-134.4,5.74,5.74,0,0,1,8,1.2,96.21,96.21,0,0,1-20,134.39A5.74,5.74,0,0,1,453.65,456.16Zm17.54-123.79a84.78,84.78,0,0,0-16.31,109.72,84.78,84.78,0,0,0,16.31-109.72Z"/><path class="cls-1" d="M312.36,342a89.82,89.82,0,0,1-29.6-5h0a89.23,89.23,0,0,1-51.26-45.59,5.72,5.72,0,0,1-.26-4.39,5.79,5.79,0,0,1,2.93-3.29,89.84,89.84,0,0,1,119.76,41.7,5.76,5.76,0,0,1-2.68,7.68A89.62,89.62,0,0,1,312.36,342Zm-25.83-15.88a77.81,77.81,0,0,0,54.26-1,78.37,78.37,0,0,0-96.15-33.48,77.77,77.77,0,0,0,41.89,34.48Z"/><path class="cls-1" d="M494.43,659.6a6.22,6.22,0,0,1-.86-.06,102.8,102.8,0,0,1-67.72-40.69h0a102.78,102.78,0,0,1-19.24-76.63,5.73,5.73,0,0,1,6.53-4.84,103.45,103.45,0,0,1,87,117.32,5.72,5.72,0,0,1-5.68,4.9ZM435.07,612a91.3,91.3,0,0,0,54.36,35.11,92,92,0,0,0-72.14-97.32A91.34,91.34,0,0,0,435.07,612Z"/><path class="cls-1" d="M272.15,118.3a6.19,6.19,0,0,1-.95-.08,59.83,59.83,0,0,1-49.1-68.87,54.71,54.71,0,0,1,1.23-5.57,5.74,5.74,0,0,1,6.48-4.1c14.83,2.49,26.6,8.18,35,16.92,12.56,13,17.06,32.72,13,56.91A5.75,5.75,0,0,1,272.15,118.3ZM233.28,52.1a48.39,48.39,0,0,0,34,53.47c1.91-17.81-1.71-31.58-10.79-41C250.88,58.67,243.08,54.49,233.28,52.1Z"/><path class="cls-1" d="M281.12,119.05a59.83,59.83,0,0,1-9.92-.83,5.73,5.73,0,0,1-4.71-6.61c4.05-24.2,14.73-41.33,30.89-49.56,10.74-5.52,23.72-7.06,38.56-4.57a5.73,5.73,0,0,1,4.78,6,51.3,51.3,0,0,1-.65,5.65h0A59.9,59.9,0,0,1,281.12,119.05ZM279,107.52A48.45,48.45,0,0,0,328.6,68.08c-10-.94-18.76.47-26,4.19C290.91,78.22,283,90.07,279,107.52Zm55.42-39.35h0Z"/><path class="cls-1" d="M272.15,118.3a6.19,6.19,0,0,1-.95-.08,5.74,5.74,0,0,1-4.79-5.66,5.15,5.15,0,0,1,.08-1c3.48-20.75.13-36.58-10-47.06a5.71,5.71,0,0,1-1.6-4.18c1.4-39.26,30.75-58.49,32-59.3a5.75,5.75,0,0,1,7.6,1.28c.92,1.16,22.42,28.92,10.94,66.49a5.77,5.77,0,0,1-2.89,3.44c-13,6.6-21.29,20.47-24.77,41.23A5.75,5.75,0,0,1,272.15,118.3Zm-5.63-59.82a51.1,51.1,0,0,1,11,22.21,51.16,51.16,0,0,1,17.64-17.42,64.55,64.55,0,0,0-6.5-49.05A64.71,64.71,0,0,0,266.52,58.48ZM300,67.17h0Z"/><path class="cls-1" d="M382.6,282.14h-.21a45.88,45.88,0,0,1-44.13-47.48,39.22,39.22,0,0,1,.39-4.37,5.73,5.73,0,0,1,5.89-4.9c11.47.42,21,3.59,28.22,9.41,10.87,8.69,16.25,23.15,15.57,41.82a5.73,5.73,0,0,1-5.73,5.52Zm-32.88-44.78a34.4,34.4,0,0,0,27.11,32.57c-.6-11.88-4.37-20.67-11.24-26.17A32.41,32.41,0,0,0,349.72,237.36Z"/><path class="cls-1" d="M384.08,282.17c-.56,0-1.13,0-1.69,0a5.73,5.73,0,0,1-5.53-5.94c.68-18.67,7.12-32.7,18.61-40.57,7.63-5.27,17.32-7.75,28.81-7.32a5.73,5.73,0,0,1,5.51,5.32,37.15,37.15,0,0,1,.07,4.38h0A45.88,45.88,0,0,1,384.08,282.17Zm34.16-42.3c-6.46.46-11.91,2.2-16.26,5.21-7.29,5-11.69,13.48-13.16,25.29A34.45,34.45,0,0,0,418.24,239.87Zm5.89-2.07h0Z"/><path class="cls-1" d="M382.6,282.14h-.21a5.74,5.74,0,0,1-5.53-5.73v-.21c.55-15.1-3.24-26-11.27-32.44a5.68,5.68,0,0,1-2.13-3.94,58,58,0,0,1,18.37-47.94,5.74,5.74,0,0,1,7.7.28,57.94,57.94,0,0,1,14.84,49.16A5.79,5.79,0,0,1,402,245.1c-8.49,5.81-13.08,16.42-13.63,31.52A5.73,5.73,0,0,1,382.6,282.14Zm-7.87-45.65a38.69,38.69,0,0,1,8.87,12.41,38.75,38.75,0,0,1,9.78-11.73,46.66,46.66,0,0,0-8.18-32.24A46.39,46.39,0,0,0,374.73,236.49Zm24,3.87h0Z"/><path class="cls-1" d="M342.66,473.49a45.61,45.61,0,0,1-14.15-2.25,41.28,41.28,0,0,1-4.1-1.58,5.72,5.72,0,0,1-3.09-7c3.55-10.92,9.2-19.18,16.8-24.56,11.34-8.06,26.72-9.27,44.48-3.49a5.74,5.74,0,0,1,3.68,7.23A45.93,45.93,0,0,1,342.66,473.49ZM334.25,461A34.43,34.43,0,0,0,373,443.83c-11.59-2.69-21.07-1.47-28.25,3.63A32.33,32.33,0,0,0,334.25,461Z"/><path class="cls-1" d="M380.82,445.8a5.71,5.71,0,0,1-1.78-.28c-17.76-5.78-29.48-15.82-33.9-29-3-8.79-2.68-18.79.88-29.71a5.73,5.73,0,0,1,6.63-3.85,41.83,41.83,0,0,1,4.23,1.14h0a45.85,45.85,0,0,1,29.4,57.77,5.74,5.74,0,0,1-5.46,4Zm-25.35-50c-1.33,6.33-1.15,12.06.55,17.07,2.8,8.37,9.75,14.94,20.71,19.59a34.4,34.4,0,0,0-21.26-36.66Z"/><path class="cls-1" d="M341.44,448.52a5.33,5.33,0,0,1-1.05-.1,58,58,0,0,1-41.06-30.83,5.75,5.75,0,0,1,2.38-7.32,58,58,0,0,1,51.35-.78,5.76,5.76,0,0,1,3,3.36c3.26,9.76,12.2,17.08,26.57,21.76A5.74,5.74,0,1,1,379,445.52c-14.36-4.67-25.89-4-34.28,1.94A5.77,5.77,0,0,1,341.44,448.52Zm-28.64-30.6a46.34,46.34,0,0,0,27.48,18.75,38.83,38.83,0,0,1,14.37-5.13,38.33,38.33,0,0,1-8.59-12.62A46.37,46.37,0,0,0,312.8,417.92Z"/><path class="cls-1" d="M428.75,425.11a5.73,5.73,0,0,1-4.53-2.21C388.43,377,378.88,318,377.17,276.65v-.26c0-1.1-.08-2.16-.1-3.21a5.74,5.74,0,1,1,11.47-.24c0,1,.06,2,.1,3v.25c1.64,39.7,10.71,96.16,44.63,139.66a5.74,5.74,0,0,1-4.52,9.27Z"/><path class="cls-1" d="M493,540.48a5.76,5.76,0,0,1-5.25-3.42c-21-47.29-70.93-76-109.15-91.68-2.71-1.13-5.53-2.25-8.66-3.43a5.73,5.73,0,0,1,4-10.73c3.25,1.22,6.2,2.39,9,3.56,40.14,16.51,92.75,46.86,115.26,97.63a5.74,5.74,0,0,1-2.92,7.57A5.68,5.68,0,0,1,493,540.48Z"/><path class="cls-1" d="M227.35,359.29c-27.32,0-35.3-20.82-35.4-21.07a5.74,5.74,0,0,1,10.76-4c.36.92,8.29,20,39.93,11.3a5.74,5.74,0,1,1,3.05,11.06A69.31,69.31,0,0,1,227.35,359.29Z"/></g></g></svg>