<?xml version="1.0" standalone="no"?>
<!DOCTYPE svg PUBLIC "-//W3C//DTD SVG 20010904//EN"
 "http://www.w3.org/TR/2001/REC-SVG-20010904/DTD/svg10.dtd">
<svg version="1.0" xmlns="http://www.w3.org/2000/svg"
 width="1280.000000pt" height="1280.000000pt" viewBox="0 0 1280.000000 1280.000000"
 preserveAspectRatio="xMidYMid meet">
<metadata>
Created by potrace 1.15, written by Peter Selinger 2001-2017
</metadata>
<g transform="translate(0.000000,1280.000000) scale(0.100000,-0.100000)"
fill="#000000" stroke="none">
<path d="M6825 12051 c-6 -6 -55 -13 -110 -16 -55 -4 -139 -15 -187 -25 -48
-11 -134 -22 -190 -25 -57 -3 -130 -10 -163 -15 -33 -5 -141 -21 -240 -35
-241 -35 -271 -41 -335 -71 -39 -18 -89 -29 -180 -40 -138 -15 -305 -45 -420
-74 -42 -11 -150 -26 -240 -35 -282 -27 -432 -46 -517 -65 -118 -28 -266 -105
-348 -182 -37 -34 -95 -80 -128 -103 -47 -30 -83 -68 -150 -155 -48 -63 -101
-142 -118 -175 -17 -33 -47 -82 -66 -108 -20 -26 -60 -94 -90 -150 -30 -56
-73 -129 -95 -162 -23 -32 -50 -80 -61 -105 -29 -67 -94 -148 -157 -193 -75
-54 -134 -111 -183 -176 -48 -65 -322 -341 -387 -390 -94 -72 -171 -156 -205
-223 -19 -36 -39 -69 -45 -73 -6 -3 -20 -25 -31 -48 -12 -23 -46 -79 -75 -124
-30 -45 -61 -100 -69 -123 -8 -23 -33 -62 -55 -87 -47 -54 -124 -181 -144
-238 -8 -22 -21 -61 -30 -86 -9 -25 -38 -74 -65 -110 -33 -43 -59 -93 -80
-152 -28 -81 -31 -99 -31 -216 0 -131 6 -151 41 -151 10 0 34 9 53 21 l36 21
0 -121 c0 -105 -4 -133 -29 -213 -16 -51 -38 -125 -50 -164 -11 -38 -31 -86
-44 -105 -22 -33 -26 -34 -97 -39 -69 -5 -75 -7 -78 -28 -5 -32 15 -52 50 -52
l29 0 -21 -30 c-12 -17 -40 -40 -63 -52 -23 -11 -67 -38 -97 -58 -30 -21 -93
-57 -140 -80 -104 -52 -184 -106 -230 -155 -44 -47 -149 -122 -188 -136 -29
-10 -107 -94 -181 -194 -18 -25 -41 -74 -51 -109 -9 -35 -27 -78 -40 -96 -13
-18 -29 -57 -36 -87 -15 -63 -51 -121 -100 -158 -47 -36 -72 -90 -84 -182 -5
-43 -13 -93 -16 -111 -4 -19 -2 -50 4 -70 6 -21 16 -64 22 -97 16 -80 42 -127
89 -166 22 -17 43 -39 47 -48 4 -9 10 -60 14 -113 6 -109 11 -118 95 -174 28
-19 71 -51 97 -71 71 -58 194 -124 239 -130 23 -3 62 -20 88 -38 40 -28 46
-37 49 -73 3 -46 11 -39 -128 -109 -57 -29 -97 -43 -124 -43 -23 0 -46 -4 -52
-8 -19 -12 -34 -49 -34 -81 0 -25 -6 -33 -33 -44 -17 -8 -54 -16 -82 -20 -55
-6 -140 -48 -155 -77 -6 -10 -10 -39 -10 -64 0 -36 5 -48 26 -65 15 -12 34
-21 42 -21 16 0 114 -82 227 -193 55 -53 82 -71 122 -83 29 -8 70 -30 91 -47
21 -18 48 -39 61 -47 20 -14 21 -18 10 -43 -7 -15 -20 -27 -30 -27 -27 0 -138
-98 -161 -144 -17 -32 -23 -64 -26 -143 -4 -100 -4 -103 29 -161 18 -34 42
-65 53 -70 48 -22 256 -210 256 -232 0 -15 -136 -154 -205 -208 -88 -70 -133
-118 -151 -159 -17 -40 -20 -396 -3 -440 5 -15 23 -41 39 -58 15 -16 31 -45
35 -63 4 -19 21 -50 38 -70 39 -44 161 -124 225 -148 26 -9 72 -27 102 -40
162 -66 484 -99 960 -99 265 0 288 1 325 20 38 19 63 20 627 23 l588 3 87 -26
c49 -15 105 -31 125 -37 20 -6 68 -35 105 -64 37 -30 90 -66 116 -81 98 -56
112 -68 143 -131 17 -35 38 -70 47 -80 8 -9 31 -59 51 -110 19 -51 61 -143 92
-205 49 -94 70 -125 138 -192 84 -83 202 -159 273 -176 21 -5 139 -9 263 -9
206 0 228 2 257 20 18 11 35 31 39 45 8 31 11 31 35 1 11 -14 46 -33 81 -45
61 -21 73 -21 1141 -21 l1079 0 122 -42 c66 -22 188 -74 270 -115 129 -64 155
-73 203 -73 58 0 107 19 117 45 3 9 6 76 6 149 l0 132 32 9 c17 6 36 18 42 28
9 15 6 22 -13 38 -13 10 -32 19 -42 19 -18 0 -19 10 -19 164 0 142 -3 176 -25
260 -64 247 -7 634 139 946 35 74 76 173 91 220 15 47 48 125 73 174 39 75 58
99 127 158 44 39 103 81 130 94 28 14 68 35 90 49 46 28 137 54 359 102 174
37 215 52 418 154 76 38 176 80 223 94 106 30 270 113 313 158 54 55 156 214
238 368 l77 146 66 -20 c56 -16 77 -30 143 -92 116 -109 198 -132 233 -65 8
16 15 46 15 68 l0 38 253 -4 c138 -2 297 0 352 6 164 17 341 89 430 177 89 87
216 296 244 401 19 70 32 335 34 680 2 313 1 334 -21 427 -32 135 -133 455
-175 552 -55 129 -250 444 -400 649 l-50 68 41 127 c121 368 155 646 134 1118
-19 421 -28 477 -98 579 l-46 67 11 62 c6 34 11 132 11 219 0 185 -2 190 -98
288 l-66 67 3 98 c3 106 -10 179 -56 318 -58 179 -107 248 -357 502 l-139 143
11 37 c6 21 33 74 59 118 l48 80 3 125 c3 108 2 128 -13 140 -23 19 -193 73
-374 120 -220 56 -354 126 -437 226 -44 55 -101 83 -166 84 -40 0 -56 7 -100
40 -123 93 -304 154 -491 166 -143 9 -490 -13 -582 -36 -93 -24 -130 -42 -180
-90 l-40 -39 -145 24 c-175 27 -285 55 -405 101 -96 37 -219 101 -272 141 -49
36 -102 51 -270 78 -83 14 -164 30 -180 37 -37 16 -833 24 -848 9z m825 -87
c36 -8 130 -26 210 -40 152 -25 158 -28 314 -119 168 -98 373 -164 619 -200
62 -9 113 -18 115 -20 2 -2 -1 -20 -7 -42 -6 -21 -11 -59 -11 -85 0 -27 -4
-48 -9 -48 -5 0 -35 16 -67 35 -73 44 -135 63 -234 71 -93 8 -144 0 -171 -27
-17 -17 -19 -33 -19 -132 0 -153 53 -592 86 -714 6 -22 4 -23 -47 -23 l-54 1
-142 138 c-111 107 -143 144 -143 164 0 52 -51 186 -98 258 -39 59 -75 96
-183 184 -73 61 -172 145 -219 188 -98 90 -172 129 -282 152 -109 21 -169 20
-201 -5 l-26 -21 -67 21 c-155 47 -224 10 -224 -122 l0 -54 -187 -23 c-127
-15 -286 -26 -488 -32 -165 -4 -435 -17 -600 -29 -175 -11 -406 -20 -554 -20
l-254 0 -46 50 c-25 28 -54 50 -64 50 -24 0 -77 -53 -77 -78 0 -17 -11 -19
-141 -25 -179 -8 -212 -21 -217 -84 -4 -57 7 -74 92 -138 79 -60 107 -66 143
-33 13 12 23 17 23 10 0 -17 -45 -44 -168 -102 -71 -34 -122 -65 -136 -82 -21
-27 -35 -31 -227 -67 -166 -32 -323 -73 -416 -108 -23 -9 -14 17 25 70 21 29
51 77 65 107 14 30 43 76 64 101 21 25 59 76 86 113 31 43 64 76 94 94 26 15
84 59 129 99 151 133 292 186 559 212 370 36 442 45 555 71 144 34 273 55 413
70 71 7 118 18 166 40 51 22 112 36 242 56 277 42 287 43 434 54 77 6 180 20
230 31 49 11 135 23 190 26 55 3 107 9 115 14 8 5 179 8 380 9 296 0 377 -3
430 -16z m2274 -243 c104 -29 197 -72 264 -122 51 -39 53 -41 36 -60 -15 -17
-32 -19 -133 -19 -104 0 -506 30 -621 46 -25 4 -62 13 -84 20 -21 8 -59 14
-85 14 -53 0 -251 41 -251 52 0 14 78 48 144 63 95 22 277 34 476 30 142 -2
190 -7 254 -24z m-2920 -101 c61 -19 66 -23 66 -49 0 -27 -2 -28 -67 -34 -38
-4 -83 -7 -100 -7 -33 0 -33 0 -33 48 0 27 3 52 7 55 12 12 60 7 127 -13z
m296 5 c36 -8 83 -23 105 -33 l40 -17 -85 -6 c-84 -6 -86 -5 -142 29 -32 19
-58 36 -58 38 0 9 81 2 140 -11z m1835 -80 c61 -14 133 -25 161 -25 28 0 67
-6 85 -14 55 -23 525 -66 714 -66 131 0 157 6 187 44 18 21 19 20 141 -104
121 -123 408 -442 403 -447 -1 -2 -29 6 -60 17 -129 44 -190 50 -517 50 l-313
0 -67 41 c-37 22 -101 53 -141 67 -65 24 -87 27 -203 27 -110 0 -136 -3 -170
-20 -53 -27 -85 -88 -85 -166 0 -54 -1 -57 -39 -82 l-38 -26 -53 147 c-68 190
-99 257 -144 311 l-37 44 7 76 c8 107 21 151 42 151 10 0 67 -11 127 -25z
m-1555 -90 c30 -28 111 -96 180 -153 131 -107 175 -160 216 -262 13 -30 21
-56 19 -58 -6 -6 -216 168 -358 297 -117 105 -127 118 -127 150 -1 20 -7 53
-15 74 l-13 38 21 -18 c12 -10 47 -40 77 -68z m2851 48 c13 -16 12 -17 -3 -4
-17 13 -22 21 -14 21 2 0 10 -8 17 -17z m-3007 -28 c7 -19 -5 -19 -30 0 -19
14 -19 14 2 15 12 0 24 -7 28 -15z m-88 -58 c88 -62 89 -63 92 -108 3 -41 -1
-50 -29 -78 -33 -33 -98 -71 -123 -71 -42 0 -96 121 -111 247 -6 59 -6 62 17
66 53 10 69 4 154 -56z m-251 -13 c19 -153 66 -262 129 -299 51 -30 84 -31
134 -6 76 39 123 82 147 132 l23 50 108 -99 c60 -54 171 -149 246 -210 75 -62
139 -116 142 -121 3 -5 9 -40 12 -78 10 -102 8 -103 -176 -103 -228 0 -252 7
-460 145 -210 138 -353 305 -451 525 l-47 105 36 6 c20 3 62 7 93 8 l57 1 7
-56z m-231 -70 l43 -102 -31 13 c-17 7 -92 23 -166 34 -74 11 -198 32 -275 46
-77 14 -196 32 -265 41 -68 8 -126 16 -127 18 -2 2 88 6 199 10 112 3 266 15
343 25 77 11 162 19 188 18 l48 -2 43 -101z m1891 56 c44 -22 92 -50 107 -63
l27 -22 3 -373 3 -373 -35 7 c-19 3 -89 16 -155 28 -106 20 -121 25 -132 47
-31 64 -82 432 -90 653 l-6 149 99 -6 c89 -6 107 -11 179 -47z m1816 -9 c80
-62 190 -107 359 -147 58 -14 156 -41 218 -62 l112 -36 0 -91 c0 -85 -2 -94
-32 -141 -17 -27 -40 -69 -51 -93 l-19 -44 -43 47 c-26 28 -67 57 -103 74 -48
22 -71 41 -120 102 -33 41 -128 150 -211 243 -140 154 -171 196 -110 148z
m-6091 -48 c0 -5 -12 -14 -27 -20 -21 -10 -29 -10 -41 0 -15 12 -14 13 61 26
4 0 7 -2 7 -6z m190 -2 c0 -12 -29 -23 -41 -15 -18 10 -9 24 16 24 14 0 25 -4
25 -9z m1105 -6 c263 -20 424 -39 625 -75 91 -16 226 -39 300 -50 74 -12 145
-27 157 -35 12 -8 48 -47 79 -87 106 -135 264 -284 432 -407 39 -29 70 -56 67
-61 -2 -4 -27 -10 -54 -14 -27 -3 -104 -21 -170 -40 l-122 -33 -127 104 c-177
145 -279 210 -487 313 -245 120 -395 178 -534 206 -224 45 -754 114 -873 114
-61 0 -71 3 -103 31 -19 17 -35 35 -35 40 0 15 625 10 845 -6z m-1465 -5 c0
-5 14 -25 30 -43 52 -60 33 -65 -40 -10 -57 43 -64 63 -20 63 17 0 30 -4 30
-10z m499 -42 l36 -22 -75 -13 c-41 -7 -79 -12 -83 -10 -7 2 71 65 82 67 2 0
20 -10 40 -22z m-279 -36 c0 -27 -10 -33 -33 -20 -20 10 -20 11 -2 24 25 19
35 18 35 -4z m4531 -240 c28 -75 56 -162 64 -194 l13 -56 -44 -109 c-43 -106
-45 -108 -75 -106 -17 0 -33 4 -37 8 -4 4 -8 156 -9 338 l-3 332 21 -38 c11
-21 43 -100 70 -175z m-4065 149 c21 -15 48 -38 59 -51 l20 -23 -70 5 c-54 4
-88 14 -150 43 l-80 39 40 6 c94 16 140 11 181 -19z m315 9 c486 -61 674 -96
834 -157 127 -48 413 -189 520 -255 71 -45 279 -201 329 -249 6 -6 -2 -21 -21
-41 -43 -45 -55 -81 -47 -145 8 -67 33 -99 83 -108 l38 -6 12 -107 c7 -59 24
-177 38 -262 37 -223 41 -201 -47 -222 l-74 -17 -96 63 c-96 65 -155 97 -200
111 -13 4 -65 40 -115 80 -110 88 -191 142 -270 183 -47 23 -89 61 -188 166
-111 118 -127 138 -117 155 27 52 -1 93 -103 149 -84 46 -99 61 -127 125 -15
34 -20 63 -18 104 l3 57 -74 27 c-40 15 -97 44 -127 64 -49 32 -53 38 -43 57
18 34 -3 68 -44 68 -18 0 -37 -4 -42 -9 -17 -16 -111 31 -191 94 -42 33 -85
68 -97 77 -22 17 -22 17 -1 18 11 0 94 -9 185 -20z m-605 -59 c38 -15 102 -43
142 -60 56 -25 96 -34 170 -40 158 -14 170 -20 283 -139 97 -103 117 -131 82
-117 -44 17 -420 147 -493 171 -71 22 -109 27 -264 33 l-181 7 40 17 c55 25
75 45 101 105 13 28 30 52 38 52 8 0 45 -13 82 -29z m-211 -31 c-8 -13 -76
-42 -83 -36 -6 7 60 46 76 46 7 0 10 -5 7 -10z m5197 -31 c97 -28 94 -39 -9
-39 -87 0 -216 -24 -288 -54 -45 -19 -52 -7 -30 49 18 48 28 54 115 65 70 10
127 4 212 -21z m265 -164 c53 -60 103 -125 103 -135 0 -12 -327 -303 -364
-325 -37 -21 -38 -21 -227 22 l-66 15 -23 195 c-20 167 -21 196 -9 204 33 21
180 61 254 69 44 4 127 7 184 7 l103 -2 45 -50z m761 11 l82 -27 0 -82 c0 -58
10 -124 34 -227 19 -79 33 -146 32 -147 -3 -3 -6 -2 -232 121 l-141 76 -7 96
c-10 152 -39 197 -126 198 -27 1 -55 7 -62 15 -11 11 16 12 162 8 156 -3 184
-7 258 -31z m-555 -3 c31 -9 57 -19 57 -22 0 -4 -15 -15 -34 -25 -30 -16 -36
-16 -62 -3 -16 8 -42 30 -59 47 l-30 32 35 -7 c19 -3 61 -14 93 -22z m-5108
-106 c324 -112 348 -121 360 -143 45 -83 253 -328 332 -393 42 -35 33 -38 -47
-16 -97 26 -150 17 -150 -26 0 -33 43 -69 242 -204 112 -76 208 -142 215 -149
9 -8 -34 -10 -168 -8 -328 7 -431 -26 -470 -146 -6 -20 -15 -40 -18 -45 -23
-24 -659 211 -745 276 -18 13 -7 21 155 103 143 73 185 99 236 149 98 96 96
141 -12 203 -33 19 -112 67 -175 107 -63 40 -130 80 -147 89 -29 15 -32 19
-21 36 25 39 1 53 -124 70 -96 14 -122 22 -159 47 -50 35 -129 117 -129 134 0
8 76 10 288 7 l287 -5 250 -86z m-995 6 c0 -16 -8 -16 -85 1 -61 13 -60 18 10
34 42 9 75 -6 75 -35z m6874 3 c17 -18 67 -98 112 -177 l81 -144 6 -102 6
-103 -89 45 c-50 25 -90 47 -90 50 0 2 -18 82 -40 176 -40 171 -51 289 -29
289 7 0 26 -15 43 -34z m-5402 3 c16 -12 51 -30 76 -39 44 -17 47 -21 53 -61
4 -24 5 -45 4 -47 -1 -1 -28 7 -59 20 -48 18 -64 30 -92 72 -50 75 -43 98 18
55z m4806 -42 c13 -27 22 -51 19 -53 -3 -3 -32 13 -66 35 l-62 40 28 15 c41
23 54 17 81 -37z m-1053 21 c8 -39 36 -290 32 -294 -2 -2 -29 2 -61 8 -54 12
-57 14 -51 38 3 14 8 68 12 120 4 71 11 102 25 123 24 33 36 34 43 5z m-1041
-117 l30 -31 -98 0 -97 0 15 22 c9 12 19 44 22 70 l7 48 46 -39 c25 -22 59
-53 75 -70z m-4714 64 c0 -2 -33 -23 -72 -46 -40 -23 -82 -49 -92 -58 -22 -19
-20 -13 18 57 l29 52 59 0 c32 0 58 -2 58 -5z m466 -15 l61 -12 7 -126 c4 -70
12 -149 18 -177 25 -120 110 -236 268 -367 l101 -83 -65 -60 c-35 -33 -70 -71
-77 -85 -16 -31 -15 -180 2 -212 33 -65 168 -162 421 -303 152 -84 182 -121
140 -171 -9 -12 -67 -58 -128 -103 -123 -89 -319 -284 -349 -347 -26 -53 -26
-188 -1 -262 29 -84 73 -122 239 -203 81 -39 147 -74 147 -78 0 -3 -30 -22
-68 -41 -37 -19 -101 -60 -142 -91 -41 -31 -113 -78 -160 -104 -115 -66 -258
-161 -298 -199 -59 -55 -72 -92 -72 -208 0 -125 14 -159 83 -205 68 -45 173
-76 371 -108 l39 -6 -6 -94 c-7 -130 -59 -256 -203 -495 -159 -266 -181 -307
-218 -416 -18 -55 -46 -133 -61 -174 -25 -67 -29 -92 -34 -240 l-6 -165 -83
-159 c-72 -138 -82 -165 -82 -210 0 -64 17 -89 72 -110 37 -14 88 -16 357 -14
286 3 315 5 325 21 18 28 -4 52 -53 55 -22 2 -41 6 -41 9 0 3 19 27 43 52 23
26 79 91 124 146 45 55 117 135 160 177 122 120 748 681 782 701 l31 18 0
-114 c0 -122 10 -172 42 -199 30 -26 67 -22 144 17 94 47 158 98 221 175 75
92 227 321 270 408 33 66 36 80 37 160 1 87 1 87 -25 90 -21 2 -52 -16 -134
-77 -58 -44 -168 -117 -243 -162 -75 -46 -156 -95 -179 -111 -23 -15 -44 -28
-47 -28 -3 0 -6 18 -6 39 0 91 -22 101 -142 60 -113 -38 -245 -53 -393 -45
-100 6 -112 8 -132 31 -45 51 -75 270 -75 555 0 367 54 592 206 858 78 138
179 301 186 302 3 0 15 -37 28 -83 30 -109 111 -275 154 -318 104 -104 330
-132 570 -70 209 53 572 210 689 299 34 25 82 72 107 104 25 32 48 58 51 58
11 0 226 -280 285 -372 68 -105 100 -173 156 -336 42 -122 43 -124 26 -158
-32 -69 -12 -286 58 -618 25 -115 105 -322 231 -591 53 -114 54 -138 10 -247
-18 -43 -28 -90 -32 -150 l-6 -87 -24 19 c-13 10 -41 21 -63 25 -31 5 -48 17
-78 52 -36 45 -37 49 -37 125 0 67 -3 82 -19 94 -31 22 -53 17 -95 -21 -21
-19 -43 -35 -49 -35 -6 0 -39 25 -75 56 l-64 55 -5 144 c-5 134 -7 148 -34
202 -17 33 -40 63 -54 70 -14 7 -58 13 -98 13 -72 0 -75 1 -120 41 -26 23 -74
55 -107 72 -56 29 -68 32 -188 35 -153 5 -169 0 -238 -76 -77 -85 -93 -122
-86 -209 7 -88 8 -87 -155 -230 -123 -107 -147 -145 -126 -191 11 -22 20 -27
48 -27 31 0 43 10 122 100 48 55 92 101 98 103 6 2 10 -18 10 -50 0 -61 26
-112 66 -130 23 -11 29 -10 46 12 18 22 19 37 16 145 l-3 120 108 72 c59 40
118 75 131 79 43 11 172 -53 251 -126 40 -36 98 -87 129 -113 55 -47 56 -49
56 -100 0 -29 -9 -91 -18 -138 -22 -100 -76 -202 -179 -333 -36 -44 -89 -118
-120 -162 l-55 -81 -281 -6 c-285 -5 -382 -15 -597 -58 -234 -47 -282 -90
-346 -306 -21 -73 -27 -116 -31 -248 l-6 -160 -30 -35 c-41 -47 -76 -127 -89
-204 l-11 -64 -35 24 c-44 31 -87 31 -103 2 -25 -46 19 -209 85 -316 l36 -57
0 -180 c0 -155 2 -184 17 -205 48 -69 137 -114 264 -135 118 -19 219 -19 244
-1 16 12 23 11 49 -5 17 -11 41 -19 54 -19 33 0 70 41 77 86 25 138 250 629
381 829 142 217 309 431 366 469 29 20 54 34 56 32 2 -2 -8 -30 -21 -62 -34
-80 -67 -191 -67 -222 0 -14 -14 -55 -32 -90 -28 -59 -30 -69 -20 -106 9 -37
7 -47 -26 -121 -44 -99 -292 -526 -379 -654 -36 -52 -71 -111 -79 -131 -13
-32 -18 -36 -44 -32 -27 4 -33 -3 -107 -117 -43 -66 -142 -219 -221 -338 -149
-228 -246 -409 -282 -529 -20 -67 -24 -73 -84 -117 -35 -26 -68 -47 -72 -47
-5 0 -29 -14 -54 -30 -25 -17 -61 -38 -80 -46 -44 -19 -70 -43 -70 -65 0 -31
66 -76 154 -105 l85 -28 -16 -35 c-33 -74 -63 -195 -78 -313 -9 -68 -23 -149
-31 -181 -17 -66 -9 -92 33 -108 34 -13 20 -29 -60 -69 -59 -30 -62 -30 -216
-30 -201 0 -285 16 -324 62 -56 65 -79 115 -88 196 -5 42 -18 102 -28 132 -11
30 -24 83 -29 116 -16 95 -73 197 -156 280 -40 40 -89 79 -110 88 -21 9 -54
29 -74 45 -21 15 -66 43 -102 61 -36 18 -104 54 -151 81 l-86 50 -509 -5
c-280 -3 -657 -9 -839 -14 -287 -8 -340 -12 -405 -31 -64 -17 -102 -21 -255
-21 -160 0 -185 3 -225 21 -90 41 -265 79 -364 79 l-93 0 -56 49 c-34 30 -77
56 -109 67 -102 33 -98 24 -98 201 0 154 0 156 30 208 16 28 34 75 41 103 6
29 15 52 20 52 21 0 203 197 222 239 28 64 26 150 -7 213 -41 79 -32 179 18
192 11 3 78 9 148 12 157 9 194 24 185 79 -5 31 -2 36 30 56 40 25 63 71 63
127 0 21 5 43 11 49 28 28 4 52 -221 213 -128 91 -139 98 -203 119 -50 17 -89
44 -202 137 -166 137 -235 203 -235 224 0 8 12 41 27 72 28 57 28 58 72 58 36
0 57 9 112 45 45 31 85 50 126 58 33 7 68 19 77 26 26 22 66 106 66 139 0 38
-17 52 -104 82 -39 14 -72 31 -72 38 -1 6 -2 23 -3 37 0 14 -16 41 -34 61 -37
40 -112 64 -208 64 -43 0 -71 7 -120 32 l-64 33 2 95 c0 52 4 125 8 163 7 63
6 70 -21 110 -70 105 -175 191 -258 211 l-29 7 6 97 c8 144 18 166 104 227 40
28 118 98 175 155 110 112 216 208 339 307 92 75 329 309 423 418 37 44 82
104 98 133 27 47 63 81 74 69 3 -2 -3 -18 -13 -35 -17 -30 -17 -32 0 -49 15
-15 42 -19 180 -23 156 -6 165 -7 237 -39 41 -18 122 -53 180 -76 l105 -43 5
-77 c3 -48 10 -79 19 -84 17 -11 51 -2 51 12 0 6 8 4 17 -6 9 -9 15 -18 12
-20 -2 -3 -47 -23 -99 -47 -83 -37 -107 -43 -193 -49 -70 -5 -101 -11 -107
-21 -14 -22 -12 -29 17 -56 23 -21 35 -25 68 -20 22 2 94 9 160 15 66 6 156
16 200 22 99 13 228 67 270 113 25 28 35 33 62 29 46 -7 81 4 88 27 6 17 17
20 113 22 l107 3 0 30 c0 26 -7 33 -55 57 -76 38 -130 71 -130 80 0 5 38 8 84
8 64 0 88 4 100 16 21 21 20 33 -6 61 -21 22 -27 23 -181 23 l-159 0 -81 40
c-45 22 -104 45 -132 51 -27 6 -73 17 -101 25 -34 9 -103 14 -207 14 -143 0
-186 7 -156 26 7 4 33 8 58 8 44 1 46 2 46 31 0 29 -2 30 -80 48 -44 10 -89
20 -100 22 -11 2 -28 10 -37 17 -17 12 -17 16 2 76 18 56 20 92 20 297 l0 232
27 48 c20 37 37 53 77 71 50 24 55 24 361 23 l310 -1 45 -27 c36 -22 58 -48
108 -131 34 -57 73 -116 86 -130 13 -14 30 -38 37 -55 16 -33 59 -46 85 -24
20 17 18 33 -16 86 l-30 47 21 22 c37 40 10 126 -70 222 l-50 60 42 -10 c50
-12 158 -4 186 14 43 27 53 86 19 119 -22 21 -28 21 -214 15 -182 -6 -195 -5
-245 16 -30 12 -73 37 -97 54 -69 52 -131 78 -187 79 -46 0 -50 -2 -53 -25 -3
-17 4 -31 25 -47 l28 -23 -87 0 c-48 0 -99 -5 -115 -11 -15 -5 -59 -16 -99
-24 -96 -18 -129 -33 -229 -104 -47 -34 -87 -61 -90 -61 -10 0 -5 286 6 325
19 68 134 296 192 381 30 44 71 112 90 150 19 38 65 113 101 168 36 54 66 102
66 106 0 4 20 34 46 66 50 66 114 122 221 195 102 69 243 207 336 327 43 56
96 116 116 132 20 17 54 54 76 83 21 28 99 112 173 185 115 113 153 143 255
203 174 103 165 100 292 95 61 -3 137 -10 171 -16z m6294 -65 c63 -40 100 -71
101 -82 0 -10 4 -51 8 -91 4 -40 3 -76 -2 -79 -4 -3 -19 -2 -32 1 -18 5 -41
40 -102 154 -90 170 -86 162 -79 162 3 0 51 -29 106 -65z m838 5 c-2 -7 -10 1
-17 16 -12 27 -11 28 4 12 10 -9 16 -21 13 -28z m-6873 0 c174 -38 351 -114
510 -220 39 -26 101 -64 138 -85 38 -21 71 -44 74 -52 14 -35 -65 -90 -294
-208 l-171 -88 -79 64 c-160 131 -242 230 -269 330 -8 30 -17 105 -21 167 -5
94 -4 112 8 112 8 0 55 -9 104 -20z m5942 -146 c66 -127 83 -168 83 -202 0
-38 -2 -43 -19 -37 -10 3 -120 29 -243 58 -123 29 -224 57 -225 62 -1 13 299
285 311 281 5 -1 47 -74 93 -162z m-4491 26 c24 -17 49 -40 55 -52 l11 -21
-28 21 c-47 34 -100 81 -91 82 5 0 28 -14 53 -30z m1953 -65 c176 -134 294
-189 538 -251 262 -67 321 -75 538 -73 l190 1 -4 -59 c-1 -32 -5 -61 -7 -64
-2 -3 -70 -9 -151 -12 -164 -7 -237 -22 -326 -70 -67 -35 -97 -67 -136 -146
-57 -111 -65 -159 -101 -551 -12 -123 -22 -225 -23 -226 -1 -1 -188 82 -416
185 l-414 186 -54 95 c-29 52 -53 98 -53 102 0 3 30 16 68 28 139 45 224 130
238 237 11 93 -3 200 -35 268 -23 49 -59 92 -178 213 l-150 150 111 28 c61 15
138 31 171 34 33 4 65 8 71 9 6 0 61 -37 123 -84z m821 -31 c117 -114 206
-211 199 -218 -2 -2 -51 0 -109 5 -146 13 -483 97 -609 153 -90 39 -234 129
-262 162 -10 12 37 14 324 14 l336 0 121 -116z m60 76 c11 -22 19 -40 17 -40
-2 0 -21 18 -42 40 -35 36 -37 40 -17 40 15 0 28 -12 42 -40z m240 0 c63 -12
117 -23 119 -26 2 -2 7 -40 11 -84 5 -59 13 -89 28 -110 39 -52 14 -70 -95
-70 l-61 0 -75 138 c-41 75 -78 148 -82 161 -6 21 -5 23 16 18 13 -3 76 -15
139 -27z m2505 -90 c79 -157 250 -558 241 -567 -9 -10 -222 251 -250 306 -8
15 -16 64 -19 111 -3 47 -13 110 -22 140 -8 30 -18 73 -21 95 -5 38 -5 39 11
20 9 -11 36 -58 60 -105z m-515 -50 c85 -44 129 -73 137 -90 7 -14 50 -104 96
-200 78 -162 91 -182 166 -262 144 -153 238 -218 351 -241 l65 -13 6 -69 c4
-39 8 -126 10 -193 l2 -124 -87 -3 c-50 -3 -127 -15 -182 -29 -91 -25 -100
-25 -217 -15 -151 13 -200 21 -203 34 -2 6 18 24 44 42 127 86 172 166 172
302 0 93 -22 172 -74 264 -59 107 -152 178 -454 348 -105 58 -117 68 -116 92
0 15 1 90 2 168 l2 140 78 -43 c42 -23 133 -72 202 -108z m-1754 73 c-4 -8 -9
-27 -13 -41 -7 -25 -7 -25 -14 13 -4 22 -5 43 -3 47 8 13 35 -5 30 -19z m250
-34 c57 -10 62 -13 68 -41 14 -69 10 -76 -46 -87 -29 -6 -84 -15 -123 -21 -38
-6 -82 -13 -97 -16 -41 -8 -36 19 7 44 23 14 44 41 65 82 23 46 35 60 48 56 9
-3 45 -10 78 -17z m2254 -145 c83 -100 158 -309 167 -464 l5 -95 -29 28 c-21
20 -34 45 -43 85 -17 79 -128 353 -214 531 -14 30 -26 59 -26 64 0 9 73 -69
140 -149z m-4486 84 c5 -47 3 -58 -8 -58 -20 0 -31 72 -16 100 15 28 16 26 24
-42z m-1209 3 c30 -8 63 -34 134 -105 52 -53 93 -98 90 -100 -7 -8 -195 120
-261 177 -62 54 -75 76 -30 53 15 -8 45 -19 67 -25z m1304 -24 c0 -33 -2 -38
-9 -22 -12 28 -12 78 0 70 6 -3 10 -25 9 -48z m2419 18 c4 -4 -51 -21 -94 -30
-28 -5 -32 -3 -37 22 -3 15 -3 31 -1 34 3 6 124 -18 132 -26z m-2093 -300 c13
-42 16 -82 13 -148 l-4 -89 -50 -48 c-37 -36 -67 -53 -126 -72 l-77 -26 -15
66 c-16 73 -51 308 -62 413 l-7 67 36 11 c39 13 47 26 47 79 l0 37 114 -116
c103 -104 116 -121 131 -174z m2420 230 c142 -32 287 -67 396 -96 34 -8 38
-14 64 -84 l27 -74 -27 -48 c-14 -26 -42 -60 -61 -74 l-34 -27 -113 30 c-164
43 -440 96 -535 104 l-82 7 -21 46 c-25 57 -54 159 -47 166 3 3 38 15 78 26
39 11 93 30 118 44 26 13 54 22 62 20 8 -2 87 -20 175 -40z m535 7 l-1 -27
-13 25 c-15 25 -12 45 5 35 5 -4 9 -18 9 -33z m688 -80 c75 -35 85 -43 123
-103 59 -91 175 -231 268 -324 54 -53 81 -87 81 -102 0 -27 -10 -28 -73 -9
-91 27 -274 189 -351 309 -31 48 -139 267 -132 267 2 0 40 -17 84 -38z m-1712
-90 c17 -53 31 -98 30 -98 0 -1 -95 -3 -211 -5 l-210 -4 2 35 c2 19 5 53 8 76
l6 40 152 26 c84 14 161 26 172 26 17 2 25 -14 51 -96z m-3502 -9 c126 -36
133 -39 295 -147 90 -61 166 -116 168 -121 5 -15 -146 -6 -177 10 -41 22 -435
295 -425 295 5 0 68 -17 139 -37z m4679 -50 c153 -86 304 -183 349 -222 45
-40 95 -122 124 -203 20 -58 20 -173 0 -223 -21 -48 -36 -66 -107 -120 l-56
-44 -144 210 c-166 240 -199 300 -234 423 -30 105 -44 226 -26 226 6 0 49 -21
94 -47z m-1844 -127 c-2 -2 -53 -25 -114 -51 -123 -53 -151 -70 -213 -129
l-44 -41 16 37 c38 95 107 144 241 172 68 14 123 20 114 12z m755 -11 c6 -18
2 -18 -44 0 l-35 13 36 1 c24 1 39 -4 43 -14z m216 0 c101 -17 396 -80 433
-94 19 -7 14 -12 -49 -44 -82 -41 -155 -64 -239 -73 l-61 -6 -69 56 c-68 56
-101 93 -131 149 -18 33 -18 33 116 12z m-508 -19 c243 -51 328 -86 423 -176
33 -31 75 -67 94 -80 43 -30 87 -99 111 -177 23 -75 66 -276 75 -354 l7 -57
-67 -15 -66 -15 -62 29 c-84 39 -146 49 -300 49 l-131 0 -42 46 c-57 60 -84
108 -139 244 -65 159 -85 243 -92 398 l-6 132 39 0 c21 0 92 -11 156 -24z
m-267 -123 c8 -157 23 -223 79 -368 56 -142 88 -207 136 -271 l38 -50 -52 -18
c-87 -31 -181 -100 -241 -179 -31 -40 -67 -86 -80 -104 l-25 -32 -82 34 c-46
18 -146 62 -223 97 l-140 64 -8 50 c-5 27 -10 144 -10 259 l-2 211 37 75 c46
93 133 187 208 225 60 30 328 133 346 134 8 0 14 -42 19 -127z m1485 87 c0
-45 1 -44 -35 -30 l-26 10 23 29 c31 40 38 38 38 -9z m-5802 -15 c96 -56 539
-224 697 -264 l40 -10 -3 -328 c-2 -180 1 -457 8 -616 l11 -287 -84 -133
c-178 -280 -231 -379 -281 -528 -70 -210 -81 -297 -81 -629 0 -305 8 -394 46
-515 18 -61 49 -99 99 -126 18 -10 74 -13 210 -12 187 0 195 2 358 49 20 6 22
3 22 -39 0 -44 -1 -45 -74 -98 -104 -76 -776 -684 -865 -782 -73 -81 -204
-237 -271 -323 l-34 -44 -216 0 c-118 0 -225 3 -237 6 -42 11 -30 57 59 231
l83 163 6 167 c5 143 9 177 28 228 13 33 41 110 62 172 30 88 62 152 157 310
206 342 258 464 269 627 3 51 3 105 -1 119 -8 35 -45 52 -141 67 -170 26 -312
76 -335 119 -5 11 -10 62 -10 115 0 86 2 97 25 124 28 33 213 159 320 217 39
21 99 60 134 88 35 27 112 76 172 109 113 63 135 88 112 127 -5 9 -92 59 -194
111 -182 94 -184 96 -209 145 -20 41 -25 65 -25 131 0 72 3 84 27 116 68 89
192 207 315 300 138 104 173 146 173 203 0 68 -50 116 -227 215 -167 95 -302
182 -334 217 -18 19 -29 44 -33 79 -11 86 -1 110 72 170 36 30 67 54 69 54 2
0 38 -20 81 -45z m5750 -95 c44 -19 52 -27 58 -56 10 -56 -3 -414 -18 -473
l-13 -54 -65 -14 c-36 -7 -127 -28 -202 -46 l-137 -34 -6 46 c-24 169 -82 400
-116 460 -11 19 -16 37 -12 41 4 3 41 12 81 18 78 13 161 47 257 106 68 41 90
42 173 6z m-4042 -82 l154 -93 -107 -3 c-155 -4 -897 51 -916 68 -5 4 1 26 12
48 16 31 30 44 63 56 66 24 84 25 371 20 l268 -4 155 -92z m213 -4 c42 -42 65
-70 51 -62 -145 85 -220 131 -220 134 0 2 21 4 46 4 45 0 50 -3 123 -76z m231
-70 c12 -12 11 -14 -11 -14 -16 0 -39 14 -64 42 l-40 41 50 -28 c28 -15 57
-34 65 -41z m3870 -194 c64 -126 100 -223 87 -236 -3 -3 -60 -3 -127 1 l-122
8 7 31 c18 85 25 164 25 296 l0 145 31 -55 c17 -30 62 -116 99 -190z m1158
107 l72 -72 0 -160 c0 -88 -3 -170 -6 -182 -6 -22 -7 -22 -54 10 -26 18 -61
39 -77 48 l-30 16 -7 198 c-7 195 -5 214 24 215 3 0 38 -33 78 -73z m-6188 33
c317 -29 508 -41 750 -47 l265 -6 128 -78 c70 -42 162 -106 205 -141 96 -80
174 -135 329 -231 137 -86 188 -110 214 -102 45 15 134 -69 167 -157 32 -86
52 -199 52 -298 0 -121 -13 -152 -76 -176 -44 -17 -78 -19 -319 -19 -148 1
-277 4 -286 7 -15 6 -15 13 2 85 49 201 48 483 -3 581 -38 74 -64 87 -171 86
-91 -2 -285 -32 -507 -80 -63 -14 -142 -29 -175 -34 -132 -19 -276 -85 -395
-181 -107 -86 -291 -251 -313 -282 l-21 -28 -9 23 c-10 27 -23 1058 -13 1083
4 12 13 15 33 11 16 -3 80 -10 143 -16z m1602 -36 c15 -30 22 -54 17 -54 -12
0 -129 58 -148 73 -11 9 -4 14 30 23 68 18 72 17 101 -42z m-136 -130 c174
-125 274 -207 274 -225 0 -15 -416 245 -471 295 -58 52 -60 63 -8 65 9 1 102
-60 205 -135z m749 -282 c171 -76 322 -145 338 -152 l27 -13 0 -111 c1 -83 5
-125 20 -166 11 -30 19 -58 20 -62 0 -4 -44 23 -97 60 -54 38 -144 97 -201
133 -263 165 -250 154 -352 290 -52 70 -103 141 -113 158 l-19 32 34 -14 c18
-8 173 -78 343 -155z m2995 103 c0 -5 -5 -3 -10 5 -5 8 -10 20 -10 25 0 6 5 3
10 -5 5 -8 10 -19 10 -25z m804 -103 c9 -15 19 -282 10 -282 -5 0 -22 18 -37
40 -27 39 -134 131 -211 183 -45 30 -44 30 54 51 72 16 176 20 184 8z m-1024
-10 c0 -11 -150 -55 -158 -48 -3 3 0 17 6 31 11 23 17 25 82 25 38 0 70 -4 70
-8z m-230 -6 c0 -1 -5 -17 -11 -34 -10 -29 -13 -31 -82 -37 -40 -4 -106 -5
-147 -3 l-75 3 140 37 c132 34 175 43 175 34z m526 -33 c6 -23 -7 -42 -28 -43
-8 0 -27 62 -22 72 9 15 45 -6 50 -29z m127 16 c7 0 3 -4 -8 -9 -29 -13 -35
-12 -35 6 0 11 5 14 16 10 9 -3 21 -6 27 -7z m747 -24 c75 -55 74 -52 51 -152
-11 -48 -30 -158 -41 -243 -20 -145 -25 -170 -33 -159 -7 9 -50 185 -49 204 0
11 5 49 12 85 8 43 10 105 5 183 -3 64 -3 117 1 117 3 0 28 -16 54 -35z m-996
-6 c3 -17 6 -37 6 -44 0 -7 -41 -27 -90 -45 -54 -19 -110 -47 -139 -70 -71
-57 -159 -175 -263 -355 -64 -111 -82 -101 -24 13 19 38 60 146 91 240 53 158
59 173 84 178 63 14 191 57 251 83 36 16 68 30 71 30 4 1 9 -13 13 -30z m494
-18 c142 -74 332 -257 332 -320 0 -48 -250 -286 -445 -424 -30 -22 -33 -59 -6
-86 20 -20 39 -25 132 -35 26 -3 57 -10 70 -17 27 -12 216 -261 259 -341 l29
-54 -29 -124 c-16 -69 -30 -129 -30 -134 0 -5 -34 -6 -77 -3 -82 6 -243 50
-338 92 l-56 24 8 98 c4 54 8 193 7 308 -1 227 -7 283 -76 695 -22 135 -41
251 -42 259 -1 9 35 25 109 47 61 18 111 33 113 33 1 1 19 -8 40 -18z m-1960
-15 c26 -14 69 -30 96 -37 56 -14 49 -21 -39 -39 -47 -10 -301 -80 -419 -116
-17 -6 -17 -4 4 25 56 80 141 141 240 172 70 23 62 23 118 -5z m-2375 -35 c46
-18 62 -85 62 -261 0 -131 -16 -286 -32 -312 -2 -4 -40 34 -84 85 -146 166
-355 349 -446 389 -59 26 -60 26 162 66 242 44 294 49 338 33z m2888 -60 c24
-17 55 -41 67 -54 23 -24 23 -25 8 -89 -20 -85 -76 -235 -109 -290 -15 -24
-41 -60 -59 -82 l-34 -38 -169 85 c-135 67 -438 199 -594 258 -13 5 -21 12
-18 15 16 17 526 154 802 217 44 10 63 6 106 -22z m499 21 c0 -13 -95 -292
-110 -324 -7 -16 -16 -28 -19 -28 -3 0 -21 26 -39 58 -18 31 -62 95 -97 142
-47 63 -64 93 -65 117 l0 32 138 4 c75 1 149 4 165 5 15 1 27 -2 27 -6z m612
-19 c96 -552 118 -729 118 -931 0 -139 -13 -328 -22 -338 -2 -2 -43 17 -91 42
-83 43 -86 46 -77 70 30 78 73 635 54 697 -11 37 -35 57 -70 57 -31 0 -229
-79 -471 -188 -94 -43 -113 -48 -113 -34 0 32 30 60 195 187 194 148 252 186
271 178 8 -3 30 -31 49 -63 20 -33 45 -62 55 -65 30 -9 57 3 64 28 8 32 7 146
-4 266 -5 57 -7 108 -4 112 12 20 42 8 46 -18z m-2536 -201 c30 -33 54 -63 54
-66 0 -3 -26 -17 -57 -32 l-56 -27 -19 22 c-29 37 -48 119 -48 210 l1 86 35
-67 c20 -37 60 -94 90 -126z m2408 166 c11 -52 16 -188 7 -188 -4 0 -14 7 -21
14 -6 8 -27 20 -45 26 -47 16 -91 -6 -240 -118 -66 -50 -121 -89 -123 -87 -8
7 144 222 188 266 33 33 68 54 126 77 95 38 102 38 108 10z m1134 -25 c28 -63
40 -156 53 -432 23 -452 -9 -774 -104 -1071 l-23 -75 -19 60 c-23 78 -36 307
-42 718 -3 296 -2 322 16 382 11 36 27 118 36 182 18 146 45 283 55 283 3 0
16 -21 28 -47z m-5644 -14 c103 -31 154 -60 253 -143 139 -116 385 -378 369
-393 -14 -14 -119 21 -202 69 -172 97 -289 181 -370 262 -89 89 -177 203 -168
217 8 14 41 11 118 -12z m2249 -59 c70 -30 121 -57 114 -61 -6 -3 -36 -15 -66
-25 l-53 -19 -59 62 c-57 61 -91 109 -71 102 5 -2 66 -29 135 -59z m-2416 -12
c51 -79 187 -225 263 -283 74 -57 310 -201 378 -232 29 -12 66 -23 82 -23 40
0 38 -12 -12 -62 -66 -63 -144 -110 -310 -183 -199 -88 -291 -121 -413 -150
-142 -33 -216 -38 -313 -21 -150 26 -195 64 -262 223 -33 78 -80 244 -80 281
0 57 380 401 523 472 44 22 85 40 91 40 6 0 30 -28 53 -62z m1899 -133 c95
-64 175 -119 178 -123 3 -5 -17 -27 -44 -50 l-49 -42 -97 117 c-54 65 -115
139 -137 166 -21 26 -36 47 -31 47 4 0 85 -52 180 -115z m2032 2 c76 -119 88
-152 65 -186 -25 -40 -104 -142 -141 -183 l-34 -37 -89 44 -89 45 50 68 c47
65 115 216 141 314 16 58 19 56 97 -65z m-2129 -122 c88 -108 129 -165 125
-175 -25 -57 -44 -129 -57 -216 -14 -94 -19 -107 -69 -185 -29 -46 -94 -151
-143 -233 -100 -169 -132 -209 -186 -237 -51 -26 -66 -24 -74 8 -3 15 -27 82
-51 149 -62 167 -119 258 -356 568 l-16 21 256 0 c275 0 300 4 373 56 53 38
63 70 64 209 0 69 -4 145 -8 170 -5 28 -5 41 1 35 6 -5 69 -82 141 -170z
m1171 32 c257 -107 520 -231 520 -245 0 -8 -111 -78 -177 -111 -54 -27 -74
-26 -269 8 l-162 28 -33 39 c-18 21 -82 89 -141 149 l-108 111 46 68 c25 37
51 66 57 63 7 -2 127 -52 267 -110z m-390 97 c0 -3 -9 -19 -21 -36 -20 -28
-22 -28 -40 -12 -26 23 -24 29 14 42 40 13 47 14 47 6z m2962 -203 c15 -81 22
-158 22 -256 1 -130 -18 -306 -33 -304 -3 0 -58 70 -121 156 -66 88 -127 161
-144 170 -15 8 -55 20 -88 27 l-59 12 34 24 c62 45 256 221 304 278 56 65 52
69 85 -107z m-3087 105 l39 -33 -33 -64 c-19 -35 -37 -67 -40 -71 -7 -8 -161
128 -161 142 0 10 110 59 135 59 11 0 38 -14 60 -33z m-6811 -277 c-10 -11
-21 -19 -26 -19 -14 0 -9 155 7 201 27 79 30 75 33 -45 2 -100 0 -122 -14
-137z m6627 75 l119 -106 0 -94 c0 -107 10 -136 57 -165 36 -23 160 -48 238
-49 47 0 55 -4 142 -78 l91 -77 -30 -10 c-47 -17 -58 -40 -58 -123 l0 -74 -52
43 c-29 24 -150 140 -269 257 l-216 213 -12 104 c-15 132 -25 160 -61 175 -36
15 -101 5 -133 -20 -25 -20 -47 -12 -47 17 0 11 94 93 107 93 2 0 58 -48 124
-106z m346 54 c30 -29 74 -75 96 -102 l42 -49 -60 6 c-75 8 -153 31 -184 55
l-23 19 31 61 c17 34 34 62 37 62 3 0 31 -24 61 -52z m2089 -130 c-12 -289
-38 -496 -62 -491 -5 1 -118 63 -251 138 l-242 136 -7 65 c-3 36 -3 69 2 73
20 18 533 239 558 241 4 0 5 -73 2 -162z m-8496 142 c-8 -5 -24 -10 -35 -10
-11 0 -53 -14 -92 -29 -40 -16 -73 -25 -73 -20 0 12 36 31 95 51 57 18 130 24
105 8z m315 -60 c4 -6 -25 -9 -82 -8 -86 1 -87 1 -28 8 95 11 103 11 110 0z
m7497 -12 c-7 -7 -12 -8 -12 -2 0 14 12 26 19 19 2 -3 -1 -11 -7 -17z m-1827
-99 c4 -27 5 -52 3 -54 -2 -3 -22 14 -44 36 -38 39 -38 41 -20 55 38 27 54 18
61 -37z m-190 31 c6 -10 -33 -75 -41 -68 -2 2 1 21 7 41 10 37 22 46 34 27z
m1667 -52 c48 -24 88 -46 88 -50 0 -5 -75 -8 -167 -8 l-167 0 70 49 c38 27 74
50 79 50 6 1 49 -18 97 -41z m-7875 -28 c12 0 13 -5 7 -22 -4 -13 -10 -140
-13 -283 -5 -223 -9 -266 -25 -302 l-18 -43 -65 0 c-58 0 -65 2 -60 18 61 192
101 325 108 357 4 22 8 102 9 177 0 100 3 137 13 141 6 2 16 -7 20 -19 5 -13
16 -24 24 -24z m6938 -23 l99 -12 44 -62 c24 -35 41 -67 37 -73 -3 -5 -38 -10
-77 -10 l-71 0 -61 54 c-34 29 -81 72 -106 94 l-45 41 40 -10 c22 -5 85 -15
140 -22z m-588 -50 l71 -73 7 -104 c3 -58 7 -170 8 -250 l2 -145 -127 -3
c-120 -2 -128 -1 -138 18 -23 42 -40 175 -40 305 l0 132 51 79 c54 84 78 114
89 114 4 0 38 -33 77 -73z m420 -36 c40 -35 72 -65 70 -67 -7 -6 -125 19 -144
32 -19 12 -23 24 -23 65 0 59 -3 60 97 -30z m486 37 c42 -6 77 -15 77 -18 0
-4 -26 -19 -57 -33 l-58 -27 -23 28 c-57 68 -56 68 61 50z m875 -33 c15 -8 33
-18 39 -23 10 -6 2 -55 -32 -213 -63 -281 -95 -460 -95 -525 0 -30 -3 -54 -7
-54 -5 0 -62 54 -128 121 -128 128 -237 222 -310 265 -25 14 -45 27 -45 29 0
2 109 92 242 201 143 117 254 200 272 205 17 4 32 7 34 8 2 1 15 -6 30 -14z
m-278 -13 c0 -14 -113 -82 -257 -154 l-142 -71 -47 18 c-48 18 -137 91 -132
107 2 5 46 31 98 57 l95 48 193 2 c105 0 192 -3 192 -7z m426 -73 c18 -29 76
-387 84 -519 14 -221 13 -350 -4 -350 -37 0 -125 23 -177 46 l-59 27 0 91 c0
68 11 147 45 311 78 388 89 428 111 394z m-1626 -185 c74 -75 189 -184 255
-242 98 -87 121 -112 126 -140 5 -26 1 -40 -15 -59 l-21 -24 -163 81 c-184 92
-230 110 -279 110 -18 0 -36 6 -38 13 -6 18 -11 397 -5 397 3 0 66 -61 140
-136z m588 74 c51 -55 106 -90 168 -108 42 -13 55 -10 149 26 11 4 -8 -15 -42
-43 l-61 -49 -86 17 c-85 17 -89 19 -196 105 -60 49 -108 89 -106 91 5 6 111
19 119 15 4 -2 29 -26 55 -54z m1361 -67 c117 -65 215 -121 217 -124 8 -8 -30
-78 -126 -232 -48 -78 -108 -182 -133 -232 -37 -72 -51 -92 -73 -97 -14 -4
-27 -6 -29 -4 -1 2 -7 116 -13 253 -11 230 -29 379 -67 533 -3 12 -1 22 4 22
5 0 104 -54 220 -119z m-2525 -219 c9 -31 14 -57 13 -58 -7 -5 -237 -13 -237
-8 0 6 65 117 149 254 l46 75 7 -103 c4 -57 14 -129 22 -160z m1113 79 c55 -8
123 -42 123 -61 0 -4 -40 -37 -89 -73 -65 -47 -92 -62 -100 -54 -12 12 -16
197 -3 197 4 0 35 -4 69 -9z m1803 -76 c50 -25 90 -49 90 -53 0 -24 -67 -107
-143 -176 -94 -85 -234 -196 -248 -196 -8 0 -5 30 7 68 2 7 -1 22 -6 32 -8 16
4 43 68 147 44 70 91 149 106 176 15 26 29 47 32 47 2 0 45 -20 94 -45z
m-1452 -9 c47 -24 195 -139 223 -172 13 -16 12 -16 -11 -4 -40 20 -279 180
-285 191 -11 17 25 9 73 -15z m2213 -99 c-18 -18 -21 -3 -8 43 l12 45 3 -39
c2 -21 -1 -43 -7 -49z m-2203 -41 c86 -57 225 -143 307 -191 83 -48 157 -94
167 -102 14 -13 16 -43 17 -239 l0 -225 -50 43 c-27 24 -77 67 -112 96 -34 30
-126 92 -203 138 -127 76 -148 92 -205 162 -34 42 -110 125 -168 184 -57 59
-102 110 -100 113 16 15 175 125 182 125 4 0 79 -47 165 -104z m1717 22 c98
-36 267 -78 318 -78 45 0 46 -5 9 -115 l-27 -80 -60 -7 c-86 -11 -228 -53
-311 -93 -154 -74 -263 -263 -290 -501 -4 -32 -10 -66 -15 -74 -13 -27 -350
-200 -388 -200 -4 0 0 24 10 53 10 29 32 132 49 228 16 96 46 240 66 322 l36
147 51 25 c105 50 375 289 418 370 17 32 28 43 39 39 8 -3 51 -20 95 -36z
m-9395 -28 c12 -8 9 -10 -13 -10 -16 0 -26 4 -22 10 8 12 16 12 35 0z m6283
-82 c61 -153 218 -398 261 -406 30 -6 65 7 78 31 9 15 15 90 18 242 l5 220 45
-1 c35 0 82 -18 208 -79 89 -43 161 -82 160 -86 -2 -4 -34 -42 -71 -83 -63
-70 -72 -76 -107 -76 -78 0 -108 -31 -97 -103 4 -28 -3 -40 -65 -107 -38 -41
-99 -114 -136 -162 -54 -70 -71 -86 -87 -82 -44 12 -271 16 -311 5 -44 -12
-119 -71 -156 -124 -21 -29 -23 -47 -28 -182 l-5 -150 -92 215 c-98 229 -116
294 -162 586 -28 172 -30 259 -8 302 10 17 23 32 29 32 6 0 44 16 83 35 91 45
175 63 301 64 l101 1 36 -92z m287 5 c0 -137 -12 -313 -21 -307 -30 18 -160
244 -198 343 l-19 51 119 0 119 0 0 -87z m3380 40 c0 -14 12 -71 26 -125 14
-55 24 -101 22 -103 -2 -3 -31 0 -64 5 -32 6 -81 10 -108 10 -38 0 -47 3 -43
15 4 8 16 51 28 96 19 68 27 83 48 91 14 5 37 16 51 23 36 19 40 18 40 -12z
m-2595 -125 c119 -112 124 -127 28 -76 -43 22 -86 48 -95 57 -18 17 -41 101
-28 101 5 0 47 -37 95 -82z m-7766 -99 c-108 -121 -317 -324 -439 -424 -69
-56 -172 -148 -229 -204 -58 -55 -108 -101 -113 -101 -4 0 10 34 32 75 22 42
40 85 40 96 0 26 23 69 49 93 12 11 21 24 21 30 1 22 110 122 171 156 34 19
95 64 133 100 89 82 144 120 238 164 40 19 87 43 103 54 51 35 49 24 -6 -39z
m7588 43 c27 -14 47 -48 127 -210 85 -171 104 -223 66 -177 -17 21 -266 206
-315 235 -22 13 -42 25 -44 26 -4 4 121 144 129 144 3 -1 19 -9 37 -18z m356
-192 c68 -37 88 -55 165 -149 284 -348 301 -364 430 -406 28 -9 52 -20 52 -24
0 -4 -25 -31 -54 -60 -30 -30 -60 -68 -67 -85 -13 -33 -142 -221 -159 -231
-12 -7 -41 51 -125 250 -54 130 -83 184 -154 285 -86 122 -184 297 -256 453
l-35 79 62 -35 c35 -19 98 -54 141 -77z m2117 71 c0 -13 -78 -117 -136 -180
-97 -107 -370 -341 -398 -341 -19 0 33 189 74 270 65 126 151 185 344 235 102
27 116 29 116 16z m280 -1 c30 -6 55 -12 57 -14 10 -10 -93 -189 -337 -586
-86 -140 -176 -290 -200 -332 l-44 -78 -13 32 c-20 47 -43 68 -74 68 -42 0
-79 -38 -90 -90 -12 -63 -11 -247 1 -271 13 -23 47 -25 72 -2 10 9 20 14 21
12 2 -2 1 -83 -3 -180 -6 -149 -10 -182 -26 -210 -26 -44 -67 -67 -137 -75
l-57 -7 0 551 0 550 78 55 c223 156 487 423 550 554 15 32 17 33 82 33 37 0
91 -5 120 -10z m-1482 -55 l52 -7 0 -66 c0 -36 -1 -63 -3 -61 -1 2 -34 37 -72
78 -43 45 -62 71 -50 68 11 -3 44 -9 73 -12z m-96 -97 c52 -57 98 -109 102
-116 7 -12 -160 -251 -177 -252 -20 -1 -29 71 -34 263 -4 139 -3 207 4 207 6
0 53 -46 105 -102z m-1308 36 c65 -43 230 -170 326 -250 107 -90 159 -164 241
-344 57 -123 159 -413 159 -448 0 -20 -48 -52 -78 -52 -39 0 -124 92 -185 201
-32 57 -157 239 -278 404 -309 420 -344 472 -328 493 36 47 67 46 143 -4z
m1612 -80 c-9 -55 -22 -132 -30 -171 -21 -98 -96 -397 -102 -402 -5 -6 -84 70
-84 80 0 5 19 9 41 11 86 6 79 71 -7 75 -75 4 -134 13 -134 21 0 6 139 194
156 211 2 2 11 -2 19 -9 12 -10 21 -10 40 -2 22 10 25 18 25 69 0 47 7 71 42
139 24 46 44 81 46 80 1 -2 -4 -48 -12 -102z m-7852 87 c6 -9 -51 -37 -60 -29
-2 3 -2 13 2 22 6 17 49 22 58 7z m9395 -159 c213 -318 285 -462 371 -742 64
-210 89 -323 96 -444 7 -131 -12 -765 -26 -851 -17 -104 -129 -301 -227 -398
-52 -52 -143 -101 -258 -138 -64 -21 -93 -23 -354 -27 -156 -2 -307 -1 -335 3
l-51 6 -17 71 c-19 78 -38 105 -188 276 -49 57 -90 108 -90 113 0 6 13 42 30
80 16 38 35 89 41 112 6 23 35 74 64 112 29 39 74 111 100 160 61 115 76 136
151 217 35 37 78 91 97 121 70 109 130 183 183 224 63 51 129 131 156 191 11
24 23 83 28 131 8 83 17 113 61 191 10 19 19 49 19 65 0 17 11 77 25 135 22
94 25 127 25 313 0 141 3 206 10 202 6 -4 46 -59 89 -123z m-204 -387 c-14
-62 -25 -124 -25 -137 0 -14 -8 -36 -19 -49 -34 -45 -42 -70 -56 -175 -20
-151 -60 -223 -171 -304 -37 -28 -78 -76 -138 -162 -47 -68 -118 -160 -158
-204 -50 -55 -91 -115 -127 -184 -29 -56 -74 -129 -100 -163 -56 -72 -68 -95
-86 -151 -12 -37 -13 -20 -14 165 l-1 206 53 7 c91 11 130 26 173 70 23 22 47
59 54 81 7 24 15 132 19 265 l6 225 85 145 c46 80 154 260 240 400 87 140 186
304 221 364 l64 109 3 -198 c2 -181 0 -207 -23 -310z m-9105 476 c0 -14 -139
-79 -185 -87 -56 -9 -44 -1 71 50 108 48 114 50 114 37z m5995 -83 c26 -40
132 -188 235 -328 256 -350 274 -376 326 -471 49 -89 137 -189 190 -214 41
-19 108 -20 124 0 7 8 19 15 28 15 11 0 13 -8 9 -36 -7 -40 -29 -70 -58 -79
-20 -7 -139 60 -273 153 -147 101 -152 107 -200 223 -77 191 -201 345 -319
399 -36 16 -94 37 -130 46 -61 15 -68 15 -98 0 l-33 -17 -50 50 -49 50 58 73
c83 103 176 208 185 208 4 0 29 -33 55 -72z m1029 -37 c75 -57 280 -250 272
-258 -9 -9 -121 42 -153 70 -19 17 -69 71 -111 121 -41 50 -82 99 -90 109 -28
33 3 17 82 -42z m-3420 -148 c-22 -95 -283 -483 -368 -547 -17 -13 -62 -41
-100 -61 -55 -31 -70 -35 -77 -24 -5 8 -9 78 -9 157 l0 142 83 53 c45 29 134
84 197 122 63 38 151 95 195 127 44 31 81 58 83 58 1 0 0 -12 -4 -27z m1949
-59 c13 -5 10 -16 -14 -68 -24 -51 -31 -83 -39 -186 -6 -68 -7 -146 -4 -174
l7 -49 -64 6 c-35 4 -106 10 -157 13 l-93 7 3 178 3 178 30 32 c59 62 79 69
202 69 61 0 118 -3 126 -6z m252 -239 c57 -118 81 -192 94 -288 12 -83 14
-157 6 -157 -3 0 -42 27 -87 61 -44 33 -116 77 -159 97 l-77 37 -7 53 c-7 57
2 212 16 280 5 24 21 62 36 85 l26 41 54 -59 c34 -37 71 -94 98 -150z m-1735
138 c29 -16 52 -32 52 -38 -1 -5 -34 -16 -74 -24 -58 -11 -78 -11 -103 -2 -16
7 -72 15 -122 18 -51 3 -93 9 -93 13 0 5 14 20 31 34 29 25 37 26 144 26 104
0 117 -2 165 -27z m1968 -72 c34 -17 42 -26 36 -39 -4 -9 -10 -39 -13 -67 l-6
-50 -87 99 c-49 54 -88 102 -88 106 0 11 104 -21 158 -49z m1517 -149 c-39 -9
-101 52 -120 118 -5 19 9 9 64 -45 49 -48 67 -71 56 -73z m573 -384 c-2 -341
-6 -523 -13 -522 -5 0 -29 54 -53 120 -67 187 -192 512 -229 594 -19 41 -48
90 -65 107 -18 18 -29 35 -26 39 3 3 57 29 120 58 62 29 145 69 183 89 39 20
73 36 78 37 4 0 6 -235 5 -522z m-754 440 c38 -86 111 -138 191 -138 19 0 35
-1 35 -3 0 -2 -31 -95 -69 -208 -38 -112 -83 -259 -101 -326 -18 -68 -36 -123
-40 -123 -4 0 -19 33 -33 73 -90 254 -148 541 -127 619 8 29 103 158 116 158
2 0 15 -24 28 -52z m-3613 12 c-63 -35 -73 -37 -64 -12 10 28 35 42 77 42 l41
0 -54 -30z m647 10 c15 -24 10 -25 -28 -5 -36 19 -38 25 -7 25 12 0 28 -9 35
-20z m-112 -55 c17 -7 43 -28 57 -46 25 -35 45 -99 30 -99 -19 1 -193 151
-193 167 0 8 69 -6 106 -22z m1907 -37 c43 -61 87 -139 87 -155 0 -4 -19 11
-41 32 -50 48 -120 185 -95 185 3 0 25 -28 49 -62z m-159 -125 c-4 -15 -17
-59 -29 -98 l-22 -70 -7 50 c-11 87 -37 209 -52 245 -13 32 -9 30 51 -32 58
-59 65 -70 59 -95z m1716 -88 c38 -81 150 -369 221 -567 l38 -108 -75 0 c-41
0 -110 7 -152 16 -88 18 -314 73 -318 77 -8 7 71 284 136 482 72 216 72 216
92 198 12 -10 38 -54 58 -98z m-597 -27 c20 -114 90 -372 122 -450 20 -50 21
-58 8 -58 -18 0 -53 28 -53 42 0 4 -45 103 -100 219 l-100 210 48 64 c26 35
50 64 53 64 3 1 13 -41 22 -91z m1263 -53 c-10 -18 -11 -15 -14 25 -2 24 0 60
4 80 7 34 8 33 15 -25 4 -39 3 -67 -5 -80z m-2176 -15 l123 -131 18 -126 c30
-204 34 -274 18 -284 -23 -15 -35 -10 -48 17 -21 48 -104 147 -218 265 -62 64
-113 120 -113 125 -1 17 85 264 91 264 3 0 61 -59 129 -130z m-869 100 c126
-13 139 -17 139 -38 0 -22 112 -271 178 -397 29 -54 49 -101 46 -106 -8 -14
-141 -10 -179 5 -24 10 -55 43 -104 109 -93 126 -250 366 -257 394 -12 47 4
50 177 33z m278 -69 c21 -11 84 -54 141 -96 l103 -77 -6 -75 c-6 -81 -41 -168
-67 -168 -8 0 -31 31 -52 70 -39 74 -168 349 -168 359 0 10 9 7 49 -13z m1487
-418 c-4 -5 -149 61 -193 88 l-34 21 20 22 c37 40 54 95 47 161 l-5 60 84
-174 c47 -96 84 -176 81 -178z m-2538 194 c-17 -40 -32 -74 -34 -76 -2 -2 -4
39 -4 92 l0 96 34 -20 35 -20 -31 -72z m2032 -22 c0 -13 -71 25 -123 64 -96
74 -78 77 27 5 53 -36 96 -67 96 -69z m-8840 99 c43 -29 100 -87 132 -134 27
-40 29 -49 23 -95 -4 -27 -10 -83 -13 -123 l-7 -73 -22 16 c-21 15 -23 25 -23
98 0 99 -21 151 -75 192 -36 28 -75 90 -75 120 0 20 29 19 60 -1z m7668 -347
c49 -51 118 -71 221 -64 42 2 86 8 98 12 38 12 43 -18 22 -137 -11 -59 -32
-193 -48 -299 -15 -106 -30 -188 -33 -183 -3 5 -22 52 -42 104 -21 52 -51 119
-68 149 -40 71 -327 503 -342 516 -10 8 -66 222 -66 251 0 3 50 -65 111 -152
61 -88 127 -176 147 -197z m-299 157 c35 -175 34 -173 77 -244 17 -30 35 -68
38 -83 l7 -28 -32 17 c-17 9 -58 42 -90 73 l-59 57 0 161 c0 167 7 236 21 211
4 -7 21 -81 38 -164z m-441 122 c7 -36 -7 -66 -32 -66 l-24 0 17 45 c16 45 33
54 39 21z m1907 -116 c39 -12 99 -23 135 -25 57 -3 82 -11 205 -72 77 -38 159
-76 183 -85 38 -15 45 -24 72 -83 17 -37 30 -69 30 -71 0 -2 -39 -4 -86 -4
-47 0 -94 -5 -105 -10 -17 -10 -23 -2 -59 75 -49 108 -86 145 -144 145 -63 0
-224 -28 -294 -51 -35 -12 -65 -19 -67 -17 -4 3 -35 243 -35 267 0 6 21 -2 48
-18 26 -16 79 -39 117 -51z m-379 -206 c24 -34 44 -67 44 -73 0 -6 -21 -22
-47 -35 -27 -13 -68 -40 -92 -59 -30 -23 -50 -33 -65 -29 -28 7 -176 158 -176
180 0 15 61 240 76 282 7 18 193 -173 260 -266z m-1575 124 c-47 -134 -123
-318 -130 -313 -5 2 2 49 15 102 13 54 24 114 24 133 0 56 52 129 92 130 16 0
16 -4 -1 -52z m213 10 c20 -23 47 -64 61 -92 23 -47 25 -60 25 -199 0 -115 -3
-148 -12 -144 -7 3 -51 21 -98 40 -47 20 -116 41 -153 48 -37 7 -67 18 -67 24
0 6 22 68 49 136 26 68 56 148 65 177 17 51 19 52 56 52 33 0 44 -6 74 -42z
m-585 -119 c-27 -73 -58 -147 -70 -165 -19 -31 -25 -34 -70 -34 -27 0 -49 2
-49 6 0 9 78 121 124 177 23 29 57 73 74 100 18 26 34 47 36 47 2 0 -18 -59
-45 -131z m107 -36 c-10 -10 -19 5 -10 18 6 11 8 11 12 0 2 -7 1 -15 -2 -18z
m2478 -2 c25 -28 97 -198 145 -344 32 -96 46 -159 56 -258 17 -149 58 -342 81
-377 11 -17 23 -22 42 -20 35 4 49 45 63 182 15 134 14 132 43 109 231 -177
444 -324 584 -403 87 -49 93 -55 87 -78 -3 -14 -14 -37 -24 -51 -10 -14 -38
-64 -61 -111 -23 -47 -55 -101 -70 -120 -15 -19 -44 -62 -63 -95 -19 -33 -46
-70 -59 -83 -35 -32 -205 -121 -253 -132 -61 -14 -155 -48 -190 -69 -18 -10
-96 -49 -174 -86 -113 -53 -166 -71 -259 -91 -192 -40 -354 -84 -402 -109 -25
-13 -74 -38 -110 -55 -37 -19 -102 -67 -150 -110 -101 -93 -156 -182 -219
-363 -23 -65 -66 -166 -95 -226 -29 -59 -61 -139 -70 -177 -10 -38 -28 -105
-41 -149 -61 -212 -74 -476 -30 -645 21 -82 25 -118 25 -256 l0 -161 -61 -7
c-91 -9 -399 -7 -399 2 0 5 6 22 14 38 8 16 22 78 31 138 9 60 25 152 37 205
l20 96 114 115 c146 150 174 203 174 334 0 109 14 192 46 267 13 32 24 77 24
102 0 25 7 81 15 124 10 52 15 141 15 269 0 202 -4 220 -47 212 -38 -7 -106
-201 -133 -383 -19 -127 -105 -431 -150 -534 -24 -53 -47 -122 -52 -160 -6
-36 -25 -118 -43 -181 l-33 -115 -47 -28 c-25 -15 -73 -49 -106 -76 -33 -26
-79 -57 -102 -69 -23 -12 -77 -55 -120 -96 -43 -42 -101 -93 -130 -115 -29
-21 -63 -50 -76 -65 -22 -23 -32 -26 -96 -26 -79 0 -116 11 -246 70 -47 22
-137 53 -200 70 -63 16 -166 49 -229 72 l-115 43 186 3 186 2 53 46 c122 104
183 225 125 248 -25 9 -43 -4 -56 -41 -6 -19 -40 -66 -76 -104 l-65 -69 -177
0 c-197 0 -254 12 -374 79 -70 40 -101 76 -143 167 -18 39 -41 77 -50 85 -60
49 -73 229 -28 373 18 59 36 95 64 127 l39 44 1 -53 c0 -102 53 -167 168 -207
67 -23 84 -25 272 -25 307 0 330 11 330 158 0 84 0 85 -35 118 -27 25 -63 42
-149 69 l-114 35 -196 0 -196 0 0 55 c0 99 18 154 75 231 44 58 61 73 97 83
23 7 52 19 63 27 14 10 57 14 166 14 158 0 196 -8 267 -55 33 -22 44 -25 61
-15 23 12 26 31 12 59 -6 10 -43 33 -83 52 -73 34 -74 34 -240 37 -162 4 -169
3 -225 -22 -115 -52 -127 -61 -186 -138 -52 -68 -61 -87 -73 -150 -8 -40 -14
-100 -14 -133 0 -60 0 -61 -34 -73 -93 -34 -176 -230 -176 -413 0 -113 17
-175 62 -232 16 -21 43 -67 59 -103 16 -36 49 -86 72 -112 l42 -46 -45 26
c-185 106 -315 173 -399 203 -144 51 -293 124 -287 140 2 7 16 66 31 131 23
106 29 122 58 147 92 80 185 122 291 131 38 3 74 10 82 16 32 27 78 118 104
203 17 56 81 202 164 370 75 153 136 279 136 281 0 1 73 142 161 312 286 548
439 877 643 1379 53 132 100 245 104 252 6 9 25 8 82 -2 76 -13 131 -32 231
-79 l56 -27 6 -332 c6 -366 9 -385 84 -612 36 -112 62 -170 94 -215 10 -15 22
-60 29 -114 10 -83 25 -130 147 -483 40 -118 81 -163 118 -133 13 10 15 63 15
315 0 166 3 317 6 334 5 26 11 31 34 31 21 0 37 -12 70 -54 52 -64 118 -117
186 -148 39 -17 73 -23 161 -26 109 -4 112 -3 137 21 26 26 26 29 26 171 l0
146 -29 32 c-24 27 -36 32 -89 36 -55 4 -63 2 -88 -23 -26 -27 -27 -28 -21
-131 l5 -104 -57 52 c-59 54 -105 79 -182 98 -50 13 -69 37 -69 89 0 68 52 78
375 71 l230 -6 114 -38 c107 -36 120 -44 195 -111 45 -39 135 -106 201 -149
224 -144 325 -181 373 -136 12 11 22 28 22 36 0 26 -29 72 -58 93 -58 41 -228
133 -376 202 -163 77 -183 89 -148 89 37 0 81 28 88 56 11 43 -3 315 -19 372
-33 116 -69 146 -161 137 -114 -12 -174 -54 -197 -138 -7 -25 -10 -88 -7 -154
l4 -112 -55 31 c-130 73 -192 133 -233 225 -19 42 -22 67 -22 213 -1 209 3
220 146 365 l103 105 112 -12 111 -12 6 -36 c3 -19 6 -95 6 -168 0 -138 8
-172 39 -172 40 0 44 21 39 216 -3 102 -1 187 4 190 21 13 42 75 47 138 l6 69
70 24 c73 25 204 50 266 52 23 1 42 -6 53 -18z m455 -15 c12 -15 3 -82 -9 -69
-5 4 -15 25 -24 46 -14 35 -14 37 3 37 10 0 24 -6 30 -14z m311 -72 c102 -25
180 -37 262 -41 67 -3 122 -11 127 -17 5 -6 21 -51 36 -101 22 -72 28 -117 32
-225 l4 -135 -27 30 c-133 148 -356 382 -387 408 -33 25 -53 33 -109 39 -74 7
-87 14 -120 61 l-22 30 30 -7 c16 -5 94 -23 174 -42z m-2458 -84 c31 -22 60
-44 63 -50 8 -12 55 -13 74 -1 7 5 19 30 26 56 l12 47 85 -133 c101 -158 110
-175 158 -299 60 -158 113 -221 161 -192 10 7 19 9 20 5 12 -192 17 -222 45
-273 16 -29 46 -73 69 -98 38 -44 165 -134 205 -147 11 -4 20 -9 20 -13 0 -4
-126 -7 -279 -7 -268 0 -281 -1 -308 -21 -15 -11 -39 -36 -51 -55 -21 -29 -23
-42 -18 -90 5 -56 5 -57 -24 -62 -59 -12 -65 -36 -69 -290 -2 -125 -5 -226 -7
-224 -19 18 -107 315 -118 397 -12 83 -19 106 -45 142 -19 26 -49 95 -76 180
-74 226 -76 241 -82 564 -5 290 -5 291 16 297 11 3 24 13 28 23 7 18 -12 269
-24 314 l-7 25 35 -28 c19 -15 60 -45 91 -67z m833 -58 c19 -10 14 -17 -67
-99 -47 -48 -98 -106 -113 -128 l-27 -40 6 35 c13 71 56 349 56 356 0 4 28
-20 63 -53 34 -33 71 -65 82 -71z m311 50 l7 -32 -44 1 c-24 1 -55 4 -69 8
-23 6 -21 9 30 38 30 18 58 29 62 25 4 -4 11 -22 14 -40z m954 -33 c9 -16 4
-51 -21 -162 -18 -78 -34 -144 -36 -146 -7 -9 -63 65 -88 115 -29 58 -55 145
-55 187 l0 27 95 0 c85 0 95 -2 105 -21z m158 15 c34 -10 137 -147 369 -495
201 -299 211 -317 204 -350 -9 -42 -12 -41 -123 22 -137 78 -520 352 -575 411
l-22 24 39 174 c53 233 51 229 108 214z m305 -141 c102 -105 247 -263 350
-380 19 -22 19 -23 -8 -108 -15 -47 -30 -85 -33 -85 -4 1 -81 114 -172 253
-91 138 -198 296 -237 349 -68 91 -71 98 -48 98 18 0 56 -32 148 -127z m-3813
93 c0 -3 -24 -40 -54 -83 -30 -44 -83 -128 -117 -189 -106 -188 -229 -364
-303 -434 -37 -36 -100 -98 -140 -139 -243 -253 -284 -293 -321 -311 -52 -25
-55 -25 -86 4 -37 34 -59 160 -59 337 0 103 -3 140 -15 155 -18 23 -20 180 -4
270 17 98 59 213 91 249 17 20 52 42 81 53 63 24 307 69 437 81 98 9 490 14
490 7z m190 -2 c0 -3 -14 -19 -31 -37 -43 -45 -95 -122 -207 -309 -94 -156
-229 -364 -306 -473 -20 -27 -82 -103 -139 -167 -65 -75 -119 -148 -146 -198
-52 -99 -86 -140 -114 -140 -51 0 -133 30 -156 56 l-23 28 43 22 c45 23 222
195 304 296 25 31 70 74 99 96 101 77 252 279 381 512 32 58 92 153 133 213
l75 107 43 0 c24 0 44 -2 44 -6z m-5622 -165 l32 -11 -16 -31 c-9 -18 -17 -33
-18 -34 0 0 -19 -5 -40 -9 l-40 -7 22 28 c12 15 22 38 22 51 0 28 -2 27 38 13z
m5722 -54 c-21 -54 -41 -84 -72 -106 -35 -25 -34 -22 30 69 47 67 57 76 42 37z
m2979 -189 c0 -23 -4 -61 -8 -86 l-7 -45 -12 65 c-6 36 -14 85 -18 110 l-6 45
26 -24 c20 -19 26 -34 25 -65z m-3008 -85 c-17 -34 -33 -61 -36 -61 -3 0 10
29 27 65 18 35 34 63 36 61 2 -2 -11 -31 -27 -65z m-1 -266 c-61 -137 -179
-382 -262 -545 -446 -872 -598 -1186 -627 -1290 -11 -41 -33 -93 -49 -115 -26
-38 -31 -40 -92 -46 -76 -8 -134 -28 -202 -69 -26 -16 -48 -26 -48 -22 0 4 27
62 59 127 56 113 361 591 361 565 0 -6 -23 -81 -50 -166 -41 -123 -49 -157
-40 -174 14 -27 46 -25 64 3 8 12 31 67 50 122 80 231 206 518 263 598 75 108
313 516 380 652 30 61 70 142 90 180 19 39 50 112 69 162 18 51 45 116 60 145
31 60 75 130 80 125 2 -2 -46 -116 -106 -252z m-6354 158 c-11 -11 -19 6 -11
24 8 17 8 17 12 0 3 -10 2 -21 -1 -24z m177 14 c21 -16 30 -35 36 -74 l8 -52
-69 47 c-56 39 -68 52 -68 75 0 24 4 27 33 27 18 0 44 -10 60 -23z m10306
-144 c71 -84 101 -140 101 -187 0 -18 -53 -21 -130 -6 -47 9 -61 21 -140 125
l-38 50 31 94 31 94 34 -39 c19 -22 69 -80 111 -131z m-1880 79 c21 -39 41
-177 41 -283 l0 -112 -63 5 c-84 7 -120 27 -147 83 -19 40 -21 58 -18 155 3
122 8 132 74 155 55 20 101 19 113 -3z m-3673 -337 c6 -99 4 -122 -8 -132 -12
-10 -21 -7 -48 16 l-34 28 13 89 c7 48 22 111 34 138 l21 50 8 -34 c4 -19 11
-89 14 -155z m5334 124 c0 -5 -4 -9 -10 -9 -5 0 -10 7 -10 16 0 8 5 12 10 9 6
-3 10 -10 10 -16z m-9672 -87 c22 -17 22 -17 2 -30 -18 -11 -21 -9 -30 13 -16
42 -10 46 28 17z m10010 -94 c5 -39 -25 -37 -64 3 l-29 30 45 -3 c41 -3 45 -6
48 -30z m-5846 -98 l-5 -33 -12 29 c-6 16 -15 43 -19 59 l-6 30 23 -26 c18
-20 23 -34 19 -59z m-4072 10 c8 -5 26 -20 39 -34 l24 -26 -63 25 c-35 14 -65
25 -67 25 -2 0 -3 7 -3 15 0 12 7 14 28 9 15 -4 34 -10 42 -14z m-80 -86 c36
-17 90 -39 120 -49 86 -28 82 -35 -20 -35 -68 -1 -101 -5 -114 -15 -11 -8 -39
-15 -63 -15 -72 0 -131 -19 -158 -52 l-25 -30 0 37 c0 20 7 51 15 69 18 38 96
106 122 106 10 0 25 5 33 10 8 5 17 8 20 7 3 -2 34 -17 70 -33z m4271 19 c27
-16 29 -22 29 -74 0 -31 3 -72 7 -90 l6 -34 -41 45 c-39 42 -41 49 -42 108 0
34 3 62 6 62 3 0 19 -8 35 -17z m3277 -160 l3 -123 -24 0 c-23 0 -25 6 -36 75
-6 42 -11 98 -11 126 l0 50 33 -3 32 -3 3 -122z m-7168 65 c0 -13 -23 -5 -28
10 -2 7 2 10 12 6 9 -3 16 -11 16 -16z m4080 -105 c0 -2 -7 -3 -15 -3 -19 0
-35 40 -35 88 1 37 1 37 25 -22 14 -33 25 -61 25 -63z m148 22 c82 -17 86 -23
13 -22 l-74 2 -19 44 -18 43 35 -31 c20 -17 48 -33 63 -36z m2692 -44 l45 -42
-40 20 c-22 10 -56 36 -75 56 l-35 37 30 -15 c17 -8 50 -34 75 -56z m1098 9
c48 -27 81 -50 74 -50 -11 0 -112 56 -162 90 -41 28 11 4 88 -40z m-3597 -107
c-27 -54 -63 -118 -80 -142 l-29 -44 -27 54 -27 53 21 14 c32 22 27 58 -11 79
l-33 18 55 5 c52 5 109 29 155 64 34 25 28 2 -24 -101z m-4925 57 c57 0 104
-4 104 -8 0 -5 -6 -16 -13 -25 -10 -15 -27 -17 -117 -15 l-105 3 -3 39 c-3 36
-2 38 13 22 13 -13 37 -16 121 -16z m4401 -11 c52 -47 149 -95 219 -106 l49
-8 47 -90 c26 -50 47 -96 48 -102 1 -30 -233 -5 -316 33 -91 42 -97 55 -98
194 -1 66 1 120 3 120 2 0 24 -18 48 -41z m-4285 -201 c-2 -33 -7 -57 -10 -51
-4 5 -33 28 -64 51 -31 23 -59 46 -63 52 -4 6 20 10 67 10 l73 0 -3 -62z
m4795 -73 c-9 -41 -28 -58 -41 -37 -4 8 39 82 48 82 2 0 -1 -20 -7 -45z
m-4907 -380 c0 -2 -10 -9 -22 -15 -22 -11 -22 -10 -4 4 21 17 26 19 26 11z
m-91 -97 c-4 -24 -8 -47 -9 -53 0 -5 -16 -37 -35 -70 l-34 -60 -1 68 c0 65 1
69 41 112 23 25 43 45 44 45 1 0 -1 -19 -6 -42z m7447 -296 c-3 -32 -9 -100
-14 -152 -6 -65 -17 -110 -32 -139 -26 -53 -40 -129 -49 -276 -7 -126 -23
-166 -98 -246 -51 -55 -67 -62 -52 -22 5 15 14 60 19 100 7 50 26 112 59 191
62 149 148 474 162 619 0 4 3 2 6 -5 3 -8 3 -39 -1 -70z m-1619 -256 c157 -48
153 -45 153 -120 0 -58 -2 -64 -22 -70 -13 -3 -113 -6 -222 -6 -179 0 -205 2
-258 21 -82 30 -108 64 -108 139 0 71 -12 67 196 69 145 1 156 0 261 -33z
m-5681 -127 c4 -8 1 -8 -14 0 -12 6 -24 16 -28 22 -4 8 -1 8 14 0 12 -6 24
-16 28 -22z m399 -105 c116 -29 174 -58 95 -48 -76 10 -282 54 -299 64 -34 20
102 9 204 -16z m2460 -45 c37 -23 93 -53 124 -67 31 -14 83 -44 116 -67 33
-24 70 -46 82 -49 12 -4 51 -35 86 -69 75 -72 132 -176 143 -258 4 -30 15 -76
25 -102 11 -26 19 -55 19 -65 -1 -24 -35 43 -69 136 -16 42 -44 100 -62 128
-19 28 -46 75 -61 103 -24 43 -38 56 -95 85 -38 19 -97 57 -133 86 -81 66
-136 91 -276 130 l-111 30 -439 1 c-254 0 -431 4 -419 9 11 5 241 9 511 9
l490 1 69 -41z m-1440 -4 c-63 -22 -87 -24 -245 -24 -169 1 -173 1 -125 15 96
28 131 32 285 32 l155 0 -70 -23z m2960 -89 c-9 -42 -19 -77 -23 -80 -8 -5
-134 33 -145 44 -5 4 9 18 30 31 64 40 148 85 152 83 2 -2 -4 -37 -14 -78z
m151 -238 c63 -29 114 -55 114 -58 -1 -3 -28 -25 -62 -50 -33 -25 -81 -72
-105 -105 -33 -43 -51 -59 -65 -57 -29 5 -48 -17 -48 -57 -1 -20 -11 -65 -23
-101 -17 -51 -26 -65 -42 -65 -14 0 -20 6 -19 20 2 40 35 252 50 325 19 88 62
200 76 200 6 0 62 -24 124 -52z m400 -179 c71 -39 133 -74 137 -79 5 -4 -56
-9 -135 -12 l-143 -3 -95 -47 c-52 -25 -96 -45 -97 -44 -9 8 179 256 193 256
7 0 70 -32 140 -71z m-303 -1 c-52 -65 -87 -117 -114 -167 -17 -33 -40 -68
-51 -77 -19 -18 -19 -17 -8 11 23 59 75 141 123 193 45 47 74 71 50 40z m2257
-148 c-10 -52 -24 -131 -31 -175 -10 -65 -18 -85 -41 -109 -30 -30 -25 -30
-138 -7 -30 6 -98 14 -150 19 l-95 7 33 18 c18 10 72 56 120 103 48 47 110 98
138 113 27 16 79 52 114 80 35 28 64 50 66 49 1 -2 -6 -46 -16 -98z m-1650 75
c14 -8 21 -14 15 -14 -5 0 -21 6 -35 14 -14 8 -20 14 -15 14 6 0 21 -6 35 -14z
m-57 -109 c56 -24 96 -77 122 -160 l23 -76 -376 1 c-262 0 -389 4 -417 13
l-40 12 44 47 c49 53 170 130 246 158 65 24 346 27 398 5z m337 -87 c74 -27
193 -65 263 -84 226 -62 222 -64 -95 -65 l-276 0 -30 88 c-16 48 -32 95 -37
106 -10 22 -15 23 175 -45z m-1200 -253 c0 -18 -5 -37 -12 -44 -17 -17 -436
-17 -475 1 -24 10 -2 13 157 17 l185 5 60 36 c67 40 85 37 85 -15z m397 -12
c37 -14 72 -30 78 -35 17 -16 -217 -10 -267 7 -43 14 -66 42 -49 60 14 15 171
-6 238 -32z m670 0 c18 -20 33 -38 33 -40 0 -9 -279 -3 -340 6 -78 13 -209 50
-216 62 -3 4 106 8 242 8 l248 0 33 -36z m1525 -26 c-16 -16 -192 -25 -192
-10 0 14 30 19 125 21 63 1 77 -2 67 -11z m448 -123 l0 -125 -41 0 c-30 0 -76
18 -177 68 -75 38 -152 74 -170 80 -58 20 -35 29 148 61 30 6 75 17 100 25 25
8 66 14 93 15 l47 1 0 -125z"/>
<path d="M7298 2852 c-39 -8 -28 -72 12 -72 22 0 159 -103 217 -162 48 -49
123 -193 123 -235 0 -34 -63 -100 -125 -131 -68 -35 -225 -208 -225 -249 0 -8
-13 -31 -29 -51 -49 -61 -64 -134 -58 -280 2 -70 10 -145 17 -167 8 -27 39
-67 99 -127 76 -78 91 -88 122 -88 70 0 81 49 17 78 -42 19 -116 89 -153 146
-15 22 -20 53 -23 143 -5 133 8 210 44 252 13 16 33 50 44 76 25 58 130 169
190 200 25 13 68 47 96 74 43 43 52 58 58 98 8 60 -2 92 -56 194 -79 149 -288
319 -370 301z"/>
<path d="M7209 2211 c-16 -16 -29 -37 -29 -47 0 -10 -14 -47 -31 -83 -17 -36
-43 -91 -58 -121 -17 -37 -27 -76 -29 -121 -4 -61 -2 -68 18 -79 34 -18 60 11
60 69 0 31 10 66 30 106 16 33 30 65 30 71 0 6 8 22 18 35 10 13 24 44 31 69
7 25 19 54 27 65 18 25 18 30 -2 49 -22 22 -31 20 -65 -13z"/>
</g>
</svg>
